<?xml version="1.0" encoding="UTF-8"?>
<svg width="24px" height="24px" viewBox="0 0 24 24" version="1.1" xmlns="http://www.w3.org/2000/svg" xmlns:xlink="http://www.w3.org/1999/xlink">
    <title>call</title>
    <g id="call" stroke="none" stroke-width="1" fill="none" fill-rule="evenodd">
        <path d="M19.125,15.1253242 C19.375,15.1253242 19.583,15.2083242 19.75,15.3753242 C19.917,15.5423242 20,15.7503242 20,16.0003242 L20,19.1253242 C20,19.3753242 19.917,19.5833242 19.75,19.7503242 C19.585081,19.9163178 19.3589025,20.0067892 19.125,20.0003242 C14.931,20.0003242 11.361,18.5283242 8.417,15.5833242 C5.472,12.6403242 4,9.07032418 4,4.87532418 C4,4.62532418 4.083,4.41732418 4.25,4.25032418 C4.41491903,4.08433059 4.64109754,3.99385919 4.875,4.00032418 L8,4.00032418 C8.25,4.00032418 8.458,4.08332418 8.625,4.25032418 C8.792,4.41732418 8.875,4.62532418 8.875,4.87532418 C8.875,6.01432418 9.055,7.08332418 9.417,8.08332418 C9.53433477,8.3901897 9.45135072,8.73761095 9.208,8.95832418 L7.25,10.9173242 C8.583,13.5003242 10.542,15.4583242 13.125,16.7923242 L15.083,14.8333242 C15.278,14.5833242 15.569,14.5133242 15.958,14.6253242 C17.042,14.9583242 18.098,15.1253242 19.125,15.1253242 Z" id="Path" fill="#EC1D24"></path>
    </g>
</svg>