<?xml version="1.0" encoding="UTF-8"?>
<svg width="24px" height="24px" viewBox="0 0 24 24" version="1.1" xmlns="http://www.w3.org/2000/svg" xmlns:xlink="http://www.w3.org/1999/xlink">
    <title>camera</title>
    <g id="camera" stroke="none" stroke-width="1" fill="none" fill-rule="evenodd">
        <g id="Group-2" transform="translate(1.000000, 4.000000)"></g>
        <path d="M14.3388306,4 C15.1196402,4 15.8028486,4.42293853 16.1281859,5.10614693 L16.1281859,5.10614693 L16.9089955,6.66776612 C17.0391304,6.92803598 17.2668666,7.05817091 17.5271364,7.05817091 L17.5271364,7.05817091 L20.0647676,7.05817091 C21.5287856,7.05817091 22.7,8.26191904 22.7,9.72593703 L22.7,9.72593703 L22.7,17.7292354 C22.7,19.1932534 21.5287856,20.3644678 20.0647676,20.3644678 L20.0647676,20.3644678 L3.63523238,20.3644678 C2.17121439,20.3644678 1,19.1932534 1,17.7292354 L1,17.7292354 L1,9.6934033 C1,8.22938531 2.17121439,7.05817091 3.63523238,7.05817091 L3.63523238,7.05817091 L6.56326837,7.05817091 L7.53928036,5.10614693 C7.89715142,4.42293853 8.58035982,4 9.32863568,4 L9.32863568,4 Z M11.8337331,8.45712144 C9.26356822,8.45712144 7.21394303,10.5718141 7.21394303,13.2070465 C7.21394303,15.8097451 9.26356822,17.9569715 11.8337331,17.9569715 C14.4038981,17.9569715 16.4535232,15.8422789 16.4535232,13.2070465 C16.4535232,10.5718141 14.4038981,8.45712144 11.8337331,8.45712144 Z M11.8662669,11.2550225 C12.9263721,11.2550225 13.7857571,12.1289734 13.7857571,13.2070465 C13.7857571,14.2851196 12.9263721,15.1590705 11.8662669,15.1590705 C10.8061617,15.1590705 9.94677661,14.2851196 9.94677661,13.2070465 C9.94677661,12.1289734 10.8061617,11.2550225 11.8662669,11.2550225 Z" id="Combined-Shape" fill="#EC1D24" fill-rule="nonzero"></path>
    </g>
</svg>