<svg xmlns="http://www.w3.org/2000/svg" xmlns:xlink="http://www.w3.org/1999/xlink" width="149" height="61" version="1.1" viewBox="0 0 149 61"><title>Group</title><g id="Page-1" fill="none" fill-rule="evenodd" stroke="none" stroke-width="1"><g id="Artboard" fill-rule="nonzero" transform="translate(-1758.000000, -353.000000)"><g id="Group" transform="translate(1758.000000, 353.000000)"><rect id="Rectangle" width="149" height="48" x="0" y="0" fill="#002E6E"/><path id="Path" fill="#FFF" d="M60.5,16.8 C60.4,17.2 60.4,17.6 60,17.7 L59.7,17.7 C59.6,17.7 59.5,17.7 59.5,17.8 C59.5,17.9 59.6,17.9 59.7,17.9 L60.8,17.9 L62,17.9 C62.2,17.9 62.3,17.9 62.3,17.8 C62.3,17.7 62.2,17.7 62.1,17.7 C62,17.7 61.8,17.7 61.6,17.6 C61.4,17.6 61.3,17.5 61.3,17.2 L61.3,16.7 L61.9,12.3 C62.3,13.1 63,14.5 63.1,14.8 C63.2,15.1 64.1,16.8 64.4,17.3 C64.6,17.6 64.7,17.9 64.8,17.9 C64.9,17.9 65,17.8 65.2,17.3 L67.6,12.2 L68.3,17.1 C68.3,17.4 68.3,17.6 68.2,17.6 C68.1,17.6 68.1,17.7 68.1,17.7 C68.1,17.8 68.2,17.8 68.4,17.8 C68.8,17.8 70.4,17.9 70.7,17.9 C70.9,17.9 71,17.9 71,17.8 C71,17.7 70.9,17.7 70.8,17.7 C70.7,17.7 70.4,17.7 70.1,17.6 C69.8,17.5 69.7,17.2 69.6,16.5 L68.6,9.6 C68.6,9.4 68.5,9.3 68.4,9.3 C68.3,9.3 68.2,9.4 68.2,9.6 L65.2,16 L62.2,9.7 C62.1,9.4 62,9.4 61.9,9.4 C61.8,9.4 61.7,9.5 61.7,9.7 L60.5,16.8 L60.5,16.8 Z"/><path id="Path" fill="#FFF" d="M72.9,14.7 C72.9,15.8 72.9,16.7 72.8,17.1 C72.8,17.4 72.7,17.6 72.5,17.7 L72.1,17.7 C72,17.7 71.9,17.7 71.9,17.8 C71.9,17.9 72,17.9 72.1,17.9 L73.5,17.9 L75.2,17.9 C75.3,17.9 75.4,17.9 75.4,17.8 C75.4,17.7 75.3,17.7 75.2,17.7 L74.6,17.7 C74.3,17.7 74.2,17.5 74.2,17.2 L74.2,14.8 L74.2,12.8 L74.2,10.4 C74.2,10 74.3,9.8 74.6,9.8 L74.9,9.8 C75,9.8 75.1,9.8 75.1,9.7 C75.1,9.6 75,9.6 74.9,9.6 L73.5,9.6 L72,9.6 C71.8,9.6 71.7,9.6 71.7,9.7 C71.7,9.8 71.8,9.8 71.9,9.8 L72.3,9.8 C72.5,9.9 72.7,10 72.7,10.4 L72.7,12.8 L72.7,14.7 L72.9,14.7 Z"/><path id="Path" fill="#FFF" d="M78.5,11.7 C78.7,11.9 80,13.3 81.2,14.5 L84.5,17.8 C84.6,17.9 84.8,18 84.9,18 C85,18 85,17.9 85,17.7 L85.1,10.7 C85.1,10.1 85.2,9.8 85.5,9.8 L85.8,9.8 C85.9,9.8 86,9.8 86,9.7 C86,9.6 85.9,9.6 85.7,9.6 L84.6,9.6 L83.2,9.6 C83,9.6 82.9,9.6 82.9,9.7 C82.9,9.8 82.9,9.8 83.1,9.8 C83.3,9.8 83.5,9.8 83.7,9.9 C84,10 84.1,10.2 84.1,10.9 L84.2,15.9 L84.1,15.9 C83.9,15.7 82.4,14.1 81.6,13.4 C80,11.8 78.3,10 78.1,9.8 C77.9,9.6 77.8,9.5 77.7,9.5 C77.6,9.5 77.6,9.7 77.6,9.9 L77.5,16.5 C77.5,17.5 77.4,17.8 77.2,17.9 C77,17.9 76.8,18 76.7,18 C76.6,18 76.5,18 76.5,18.1 C76.5,18.2 76.6,18.2 76.7,18.2 L77.9,18.2 L79.3,18.2 C79.5,18.2 79.6,18.2 79.6,18.1 C79.6,18 79.5,18 79.4,18 C79.2,18 79,18 78.8,17.9 C78.6,17.8 78.4,17.5 78.4,16.7 L78.5,11.7 L78.5,11.7 Z"/><path id="Path" fill="#FFF" d="M88.7,14.7 C88.7,15.8 88.7,16.7 88.6,17.1 C88.6,17.4 88.5,17.6 88.3,17.7 L87.9,17.7 C87.8,17.7 87.7,17.7 87.7,17.8 C87.7,17.9 87.8,17.9 87.9,17.9 L89.3,17.9 L91,17.9 C91.1,17.9 91.2,17.9 91.2,17.8 C91.2,17.7 91.1,17.7 91,17.7 L90.4,17.7 C90.1,17.7 90,17.5 90,17.2 L90,14.8 L90,12.8 L90,10.4 C90,10 90.1,9.8 90.4,9.8 L90.7,9.8 C90.8,9.8 90.9,9.8 90.9,9.7 C90.9,9.6 90.8,9.6 90.7,9.6 L89.3,9.6 L87.8,9.6 C87.6,9.6 87.5,9.6 87.5,9.7 C87.5,9.8 87.6,9.8 87.7,9.8 L88.1,9.8 C88.3,9.9 88.5,10 88.5,10.4 L88.5,12.8 L88.5,14.7 L88.7,14.7 Z"/><path id="Path" fill="#FFF" d="M94.8,18.1 C95.4,18.1 96,18 96.6,17.6 C97.4,17.1 97.7,16.3 97.7,15.7 C97.7,14.6 97.2,13.9 95.9,12.9 L95.6,12.7 C94.7,12 94.4,11.6 94.4,11.1 C94.4,10.4 94.9,9.9 95.7,9.9 C96.4,9.9 96.7,10.2 96.9,10.4 C97.1,10.7 97.2,11 97.2,11.1 C97.2,11.2 97.2,11.3 97.3,11.3 C97.4,11.3 97.4,11.2 97.4,11 L97.4,9.7 C97.4,9.6 97.3,9.6 97.2,9.6 C96.9,9.5 96.4,9.4 95.7,9.4 C94.1,9.4 93.1,10.3 93.1,11.5 C93.1,12.4 93.5,13.2 94.8,14.1 L95.3,14.5 C96.2,15.2 96.4,15.7 96.4,16.3 C96.4,16.9 95.9,17.6 94.9,17.6 C94.2,17.6 93.5,17.3 93.3,16.5 C93.2,16.3 93.2,16.1 93.2,15.9 C93.2,15.8 93.2,15.7 93.1,15.7 C93,15.7 93,15.8 93,16 C93,16.2 92.9,16.8 92.9,17.5 C92.9,17.7 92.9,17.8 93.1,17.9 C93.6,18 94.1,18.1 94.8,18.1"/><path id="Path" fill="#FFF" d="M101.8,14.7 C101.8,15.7 101.8,16.6 101.7,17.1 C101.7,17.4 101.6,17.7 101.4,17.7 L101,17.7 C100.9,17.7 100.8,17.7 100.8,17.8 C100.8,17.9 100.9,17.9 101,17.9 L102.4,17.9 L104.2,17.9 C104.3,17.9 104.4,17.9 104.4,17.8 C104.4,17.7 104.3,17.7 104.2,17.7 L103.6,17.7 C103.3,17.7 103.2,17.4 103.2,17.1 C103.1,16.6 103.1,15.7 103.1,14.7 L103.1,10.1 L104.5,10.1 C105.5,10.1 105.8,10.4 105.8,10.7 L105.8,10.8 C105.8,11 105.8,11 105.9,11 C106,11 106,10.9 106,10.8 L106,9.5 C106,9.3 106,9.3 105.9,9.3 C105.8,9.3 105.5,9.4 104.8,9.4 L100.4,9.4 C100,9.4 99.6,9.4 99.3,9.3 C99,9.3 98.9,9.2 98.8,9.2 C98.7,9.2 98.7,9.3 98.7,9.4 C98.7,9.5 98.5,10.5 98.5,10.7 C98.5,10.8 98.5,10.9 98.6,10.9 C98.7,10.9 98.7,10.9 98.7,10.8 C98.7,10.7 98.8,10.6 98.9,10.4 C99.1,10.2 99.3,10.1 100,10.1 L101.7,10.1 L101.7,14.7 L101.8,14.7 Z"/><path id="Shape" fill="#FFF" d="M109.7,10.2 C109.7,10.1 109.7,10.1 109.8,10 L110.4,10 C111.1,10 112.1,10.5 112.1,12 C112.1,12.9 111.8,13.4 111.4,13.7 C111.2,13.8 111.1,13.9 110.6,13.9 C110.3,13.9 110,13.9 109.8,13.8 C109.7,13.8 109.7,13.7 109.7,13.6 L109.7,10.2 Z M108.4,14.7 C108.4,15.7 108.4,16.6 108.3,17.1 C108.3,17.4 108.2,17.7 108,17.7 L107.6,17.7 C107.5,17.7 107.4,17.7 107.4,17.8 C107.4,17.9 107.5,17.9 107.6,17.9 L109,17.9 L110.6,17.9 C110.7,17.9 110.8,17.9 110.8,17.8 C110.8,17.7 110.8,17.7 110.7,17.7 L110.2,17.7 C109.9,17.7 109.8,17.4 109.8,17.1 C109.7,16.6 109.7,15.7 109.7,14.7 L109.7,14.5 C109.7,14.4 109.7,14.4 109.8,14.4 L110.8,14.4 C110.9,14.4 110.9,14.4 111,14.5 C111.1,14.7 111.7,15.4 112.1,16 C112.7,16.9 113.1,17.4 113.6,17.6 C113.9,17.8 114.2,17.8 114.8,17.8 L115.9,17.8 C116,17.8 116.1,17.8 116.1,17.7 C116.1,17.6 116.1,17.6 116,17.6 L115.7,17.6 C115.5,17.6 115.1,17.5 114.4,16.8 C113.7,16.1 113,15.1 112,13.9 C113.1,13 113.5,12.2 113.5,11.4 C113.5,10.7 113.1,10.1 112.7,9.9 C112.1,9.5 111.3,9.4 110.6,9.4 L109,9.4 L107.5,9.4 C107.3,9.4 107.3,9.4 107.3,9.5 C107.3,9.6 107.4,9.6 107.5,9.6 L107.9,9.6 C108.3,9.7 108.4,9.9 108.4,10.2 L108.4,12.6 L108.4,14.7 L108.4,14.7 Z"/><path id="Path" fill="#FFF" d="M117.9,15.9 L117.9,17 C117.9,17.3 117.8,17.6 117.6,17.6 L117.2,17.6 C117.1,17.6 117,17.6 117,17.7 C117,17.8 117.1,17.8 117.2,17.8 L118.6,17.8 L120.3,17.8 C120.4,17.8 120.5,17.8 120.5,17.7 C120.5,17.6 120.4,17.6 120.3,17.6 L119.7,17.6 C119.4,17.6 119.3,17.3 119.2,17 L119.2,15.9 L119.2,15 C119.2,14.6 119.2,14.3 119.4,13.9 C119.6,13.4 121.2,10.8 121.5,10.3 C121.7,10 121.9,9.9 122.1,9.8 C122.3,9.7 122.5,9.7 122.6,9.7 C122.7,9.7 122.8,9.7 122.8,9.6 C122.8,9.5 122.7,9.5 122.6,9.5 L121.4,9.5 L120.3,9.5 C120.2,9.5 120.1,9.5 120.1,9.6 C120.1,9.7 120.2,9.7 120.3,9.7 C120.5,9.7 120.5,9.9 120.5,10 C120.5,10.1 120.5,10.3 120.3,10.6 C120.1,10.9 118.7,13.4 118.6,13.7 C118.4,13.4 116.9,10.7 116.7,10.4 C116.6,10.2 116.6,10.1 116.6,10 C116.6,9.9 116.7,9.8 116.8,9.8 C117,9.8 117,9.7 117,9.7 C117,9.6 116.9,9.6 116.8,9.6 L115.6,9.6 L114.2,9.6 C114.1,9.6 114,9.6 114,9.7 C114,9.8 114.1,9.8 114.2,9.8 C114.3,9.8 114.5,9.9 114.7,9.9 C114.9,10 115.2,10.3 115.5,10.7 C115.9,11.3 117.4,13.7 117.5,13.9 C117.6,14.2 117.8,14.5 117.8,15.1 L117.8,15.9 L117.9,15.9 Z"/><path id="Shape" fill="#FFF" d="M131.4,17.5 C129.3,17.5 128,15.7 128,13.3 C128,10.5 129.5,9.8 130.7,9.8 C132.5,9.8 134,11.4 134,13.9 C134,17.1 132.2,17.5 131.4,17.5 M130.9,18.1 C133.7,18.1 135.5,16.1 135.5,13.5 C135.5,10.9 133.8,9.3 131,9.3 C127.6,9.3 126.4,11.8 126.4,13.7 C126.4,15.7 127.7,18.1 130.9,18.1"/><path id="Path" fill="#FFF" d="M139.3,13.8 C139.3,13.7 139.3,13.7 139.4,13.7 L141.1,13.7 C141.4,13.7 141.6,13.9 141.7,14.1 C141.7,14.2 141.8,14.4 141.8,14.4 C141.8,14.5 141.8,14.6 141.9,14.6 C142,14.6 142,14.5 142,14.4 L142,13.6 C142,13.3 142.1,13 142.1,12.9 C142.1,12.8 142.1,12.8 142,12.8 C141.9,12.8 141.9,12.8 141.9,12.9 C141.8,13 141.6,13.1 141.4,13.1 L140.9,13.1 L139.5,13.1 C139.4,13.1 139.4,13.1 139.4,13 L139.4,10.2 C139.4,10.1 139.4,10 139.5,10 L141.2,10 C141.6,10 141.9,10.2 141.9,10.3 C142,10.5 142,10.6 142,10.7 C142,10.8 142,10.9 142.1,10.9 C142.2,10.9 142.2,10.8 142.2,10.7 C142.2,10.6 142.2,9.9 142.3,9.8 C142.3,9.5 142.4,9.4 142.4,9.3 C142.4,9.2 142.4,9.2 142.3,9.2 C142.2,9.2 142.2,9.2 142.1,9.3 L141.6,9.3 L138.7,9.3 L137.1,9.3 C136.9,9.3 136.8,9.3 136.8,9.4 C136.8,9.5 136.9,9.5 137,9.5 L137.4,9.5 C137.8,9.6 137.9,9.8 137.9,10.1 L137.9,12.5 L137.9,14.5 C137.9,15.6 137.9,16.4 137.8,16.9 C137.8,17.2 137.7,17.5 137.5,17.5 L137.1,17.5 C137,17.5 136.9,17.5 136.9,17.6 C136.9,17.7 137,17.7 137.1,17.7 L138.5,17.7 L140.2,17.7 C140.4,17.7 140.4,17.7 140.4,17.6 C140.4,17.5 140.4,17.5 140.2,17.5 L139.6,17.5 C139.3,17.5 139.2,17.2 139.2,16.9 C139.1,16.4 139.1,15.6 139.1,14.5 L139.1,13.8 L139.3,13.8 Z"/><path id="Path" fill="#FFF" d="M63.8,29.6 C63.7,29.6 63.7,29.6 63.7,29.5 L63.7,29.1 L63.7,25.2 C63.7,24.6 63.9,24.2 64.4,24.1 C64.6,24.1 64.8,24 64.9,24 C65.1,24 65.2,24 65.2,23.8 C65.2,23.7 65.1,23.6 64.8,23.6 C64.1,23.6 62.9,23.7 62.5,23.7 C62,23.7 60.8,23.6 59.8,23.6 C59.5,23.6 59.4,23.6 59.4,23.8 C59.4,23.9 59.5,24 59.7,24 C60,24 60.3,24 60.4,24.1 C61,24.2 61.2,24.5 61.2,25.2 L61.2,29.1 L61.2,32.3 C61.2,34 61.2,35.4 61.1,36.2 C61,36.7 60.9,37.1 60.6,37.2 C60.4,37.2 60.2,37.3 59.9,37.3 C59.7,37.3 59.6,37.4 59.6,37.4 C59.6,37.5 59.7,37.6 60,37.6 C60.7,37.6 61.9,37.5 62.3,37.5 C62.8,37.5 64,37.6 65.2,37.6 C65.4,37.6 65.6,37.5 65.6,37.4 C65.6,37.3 65.5,37.3 65.3,37.3 C65,37.3 64.6,37.3 64.4,37.2 C63.8,37.1 63.7,36.7 63.7,36.2 C63.6,35.4 63.6,34 63.6,32.3 L63.6,30.7 C63.6,30.6 63.7,30.6 63.7,30.6 L70.7,30.6 C70.8,30.6 70.8,30.6 70.8,30.7 L70.8,32.3 C70.8,34 70.8,35.4 70.7,36.2 C70.6,36.7 70.5,37.1 70.2,37.2 C70,37.2 69.8,37.3 69.5,37.3 C69.3,37.3 69.2,37.4 69.2,37.4 C69.2,37.5 69.3,37.6 69.6,37.6 C70.3,37.6 71.5,37.5 71.9,37.5 C72.4,37.5 73.6,37.6 74.8,37.6 C75,37.6 75.2,37.5 75.2,37.4 C75.2,37.3 75.1,37.3 74.9,37.3 C74.6,37.3 74.2,37.3 74,37.2 C73.4,37.1 73.3,36.7 73.3,36.2 C73.2,35.4 73.2,34 73.2,32.3 L73.2,29.1 L73.2,25.2 C73.2,24.6 73.4,24.2 73.9,24.1 C74.1,24.1 74.3,24 74.4,24 C74.6,24 74.7,24 74.7,23.8 C74.7,23.7 74.6,23.6 74.3,23.6 C73.6,23.6 72.4,23.7 72,23.7 C71.5,23.7 70.3,23.6 69.3,23.6 C69,23.6 68.9,23.6 68.9,23.8 C68.9,23.9 69,24 69.2,24 C69.5,24 69.8,24 69.9,24.1 C70.5,24.2 70.7,24.5 70.7,25.2 L70.7,29.1 L70.7,29.5 C70.7,29.6 70.6,29.6 70.6,29.6 L63.8,29.6 L63.8,29.6 Z"/><path id="Path" fill="#FFF" d="M79.3,32.4 C79.3,34.1 79.3,35.5 79.2,36.3 C79.1,36.8 79,37.2 78.7,37.3 C78.5,37.3 78.3,37.4 78,37.4 C77.8,37.4 77.7,37.5 77.7,37.5 C77.7,37.6 77.8,37.7 78.1,37.7 C78.8,37.7 80,37.6 80.4,37.6 C81.5,37.6 82.7,37.7 85.5,37.7 C86.2,37.7 86.4,37.7 86.5,37.2 C86.6,36.8 86.7,35.6 86.7,35.2 C86.7,35 86.7,34.9 86.6,34.9 C86.5,34.9 86.4,35 86.4,35.2 C86.3,36 86.1,36.3 85.6,36.6 C85.1,36.8 84.3,36.8 83.9,36.8 C82,36.8 81.7,36.5 81.7,35.3 L81.7,32.4 L81.7,30.9 C81.7,30.8 81.7,30.7 81.8,30.7 C82.2,30.7 84.1,30.7 84.4,30.8 C85.1,30.9 85.3,31.1 85.4,31.5 C85.5,31.7 85.5,32 85.5,32.2 C85.5,32.3 85.5,32.4 85.7,32.4 C85.9,32.4 85.9,32.2 85.9,32 C85.9,31.9 85.9,31.1 86,30.8 C86.1,29.9 86.1,29.6 86.1,29.5 C86.1,29.4 86,29.4 86,29.4 C85.9,29.4 85.8,29.5 85.7,29.6 C85.5,29.8 85.3,29.8 84.8,29.9 L81.9,29.9 C81.8,29.9 81.8,29.8 81.8,29.7 L81.8,25 C81.8,24.9 81.8,24.8 81.9,24.8 C82.3,24.8 84.2,24.8 84.5,24.9 C85.4,25 85.6,25.2 85.7,25.6 C85.8,25.8 85.8,26.1 85.8,26.3 C85.8,26.5 85.8,26.6 86,26.6 C86.1,26.6 86.2,26.5 86.2,26.4 C86.2,26.2 86.3,25.4 86.3,25.2 C86.4,24.4 86.4,24.1 86.4,24 C86.4,23.9 86.4,23.8 86.3,23.8 C86.2,23.8 86.1,23.9 86,23.9 C85.9,23.9 85.6,24 85.2,24 L80.6,24 C80.1,24 78.9,23.9 77.9,23.9 C77.6,23.9 77.5,23.9 77.5,24.1 C77.5,24.2 77.6,24.3 77.8,24.3 C78.1,24.3 78.4,24.3 78.5,24.4 C79.1,24.5 79.3,24.8 79.3,25.5 L79.3,29.4 L79.3,32.4 L79.3,32.4 Z"/><path id="Shape" fill="#FFF" d="M92.4,32 C92.3,32 92.3,31.9 92.3,31.9 L94,27.4 C94,27.3 94.1,27.2 94.1,27.2 C94.2,27.2 94.2,27.3 94.2,27.4 L95.9,32 C95.9,32.1 95.9,32.1 95.8,32.1 L92.4,32.1 L92.4,32 Z M96.1,32.9 C96.2,32.9 96.2,32.9 96.3,33 L97.8,36.9 C97.9,37.1 97.8,37.3 97.6,37.3 C97.4,37.3 97.3,37.4 97.3,37.5 C97.3,37.6 97.5,37.6 97.9,37.6 L101.4,37.6 C102.1,37.6 102.2,37.6 102.2,37.4 C102.2,37.3 102.1,37.3 102,37.3 C101.8,37.3 101.5,37.3 101.2,37.2 C100.8,37.1 100.3,36.9 99.6,35.2 C98.4,32.5 95.5,25 95.1,24 C94.9,23.6 94.8,23.4 94.6,23.4 C94.4,23.4 94.3,23.6 94.1,24.1 L89.5,35.7 C89.1,36.6 88.8,37.2 87.9,37.4 L87.3,37.4 C87.2,37.4 87.1,37.4 87.1,37.5 C87.1,37.6 87.2,37.7 87.4,37.7 C88.4,37.7 89.4,37.6 89.6,37.6 C90.2,37.6 91,37.7 91.6,37.7 C91.8,37.7 91.9,37.7 91.9,37.5 C91.9,37.4 91.8,37.4 91.6,37.4 L91.3,37.4 C90.7,37.4 90.6,37.2 90.6,36.8 C90.6,36.6 90.7,36.1 90.9,35.7 L91.9,33.1 C91.9,33 92,33 92.1,33 L96.1,33 L96.1,32.9 Z"/><path id="Path" fill="#FFF" d="M106.9,29.1 L106.9,25.2 C106.9,24.6 107.1,24.2 107.6,24.1 C107.8,24.1 108.1,24 108.3,24 C108.5,24 108.6,24 108.6,23.8 C108.6,23.7 108.5,23.6 108.2,23.6 C107.5,23.6 106.1,23.7 105.7,23.7 C105.2,23.7 104,23.6 103.2,23.6 C102.9,23.6 102.8,23.6 102.8,23.8 C102.8,23.9 102.9,24 103.1,24 C103.3,24 103.6,24 103.7,24.1 C104.3,24.2 104.5,24.5 104.5,25.2 L104.5,29.1 L104.5,32.3 C104.5,34 104.5,35.5 104.4,36.2 C104.3,36.7 104.2,37.1 103.9,37.2 C103.7,37.2 103.5,37.3 103.2,37.3 C103,37.3 102.9,37.4 102.9,37.4 C102.9,37.5 103,37.6 103.3,37.6 C104,37.6 105.2,37.5 105.6,37.5 C107.1,37.5 108.3,37.6 111,37.6 C112,37.6 112.1,37.5 112.2,37.1 C112.3,36.6 112.5,35.2 112.5,35 C112.5,34.8 112.5,34.7 112.4,34.7 C112.3,34.7 112.2,34.8 112.2,35 C112.2,35.4 111.9,35.9 111.7,36.1 C111.2,36.6 110.5,36.6 109.5,36.6 C108.1,36.6 107.6,36.5 107.3,36.2 C106.9,35.9 106.9,34.6 106.9,32.2 L106.9,29.1 L106.9,29.1 Z"/><path id="Path" fill="#FFF" d="M117.6,32.4 C117.6,34.1 117.6,35.5 117.5,36.3 C117.4,36.8 117.3,37.2 117,37.3 C116.8,37.3 116.6,37.4 116.3,37.4 C116.1,37.4 116,37.5 116,37.5 C116,37.6 116.1,37.7 116.4,37.7 C117.1,37.7 118.3,37.6 118.7,37.6 C119.2,37.6 120.4,37.7 121.6,37.7 C121.8,37.7 121.9,37.6 121.9,37.5 C121.9,37.4 121.8,37.4 121.6,37.4 C121.3,37.4 120.9,37.4 120.7,37.3 C120.1,37.2 120,36.8 120,36.3 C119.9,35.5 119.9,34.1 119.9,32.4 L119.9,24.8 L122.2,24.9 C123.8,24.9 124.3,25.5 124.4,25.9 L124.4,26.1 C124.4,26.4 124.5,26.5 124.6,26.5 C124.7,26.5 124.7,26.4 124.8,26.2 C124.8,25.7 124.9,24.5 124.9,24.1 C124.9,23.8 124.9,23.7 124.8,23.7 C124.7,23.7 124.2,23.9 123,23.9 L115.7,23.9 C115.1,23.9 114.4,23.9 113.9,23.8 C113.4,23.8 113.3,23.6 113.1,23.6 C113,23.6 112.9,23.7 112.9,23.9 C112.9,24 112.5,25.7 112.5,26 C112.5,26.2 112.5,26.3 112.7,26.3 C112.8,26.3 112.9,26.2 112.9,26.1 C112.9,26 113,25.7 113.2,25.5 C113.5,25.1 113.9,25 115,25 L117.7,24.9 L117.7,32.4 L117.6,32.4 Z"/><path id="Path" fill="#FFF" d="M131,29.6 C130.9,29.6 130.9,29.6 130.9,29.5 L130.9,29.1 L130.9,25.2 C130.9,24.6 131.1,24.2 131.6,24.1 C131.8,24.1 132,24 132.1,24 C132.3,24 132.4,24 132.4,23.8 C132.4,23.7 132.3,23.6 132,23.6 C131.3,23.6 130.1,23.7 129.7,23.7 C129.2,23.7 128,23.6 127,23.6 C126.7,23.6 126.6,23.6 126.6,23.8 C126.6,23.9 126.7,24 126.9,24 C127.2,24 127.5,24 127.6,24.1 C128.2,24.2 128.4,24.5 128.4,25.2 L128.4,29.1 L128.4,32.3 C128.4,34 128.4,35.4 128.3,36.2 C128.2,36.7 128.1,37.1 127.8,37.2 C127.6,37.2 127.4,37.3 127.1,37.3 C126.9,37.3 126.8,37.4 126.8,37.4 C126.8,37.5 126.9,37.6 127.2,37.6 C127.9,37.6 129.1,37.5 129.5,37.5 C130,37.5 131.2,37.6 132.4,37.6 C132.6,37.6 132.8,37.5 132.8,37.4 C132.8,37.3 132.7,37.3 132.5,37.3 C132.2,37.3 131.8,37.3 131.6,37.2 C131,37.1 130.9,36.7 130.9,36.2 C130.8,35.4 130.8,34 130.8,32.3 L130.8,30.7 C130.8,30.6 130.9,30.6 130.9,30.6 L137.9,30.6 C138,30.6 138,30.6 138,30.7 L138,32.3 C138,34 138,35.4 137.9,36.2 C137.8,36.7 137.7,37.1 137.4,37.2 C137.2,37.2 137,37.3 136.7,37.3 C136.5,37.3 136.4,37.4 136.4,37.4 C136.4,37.5 136.5,37.6 136.8,37.6 C137.5,37.6 138.7,37.5 139.1,37.5 C139.6,37.5 140.8,37.6 142,37.6 C142.2,37.6 142.4,37.5 142.4,37.4 C142.4,37.3 142.3,37.3 142.1,37.3 C141.8,37.3 141.4,37.3 141.2,37.2 C140.6,37.1 140.5,36.7 140.5,36.2 C140.4,35.4 140.4,34 140.4,32.3 L140.4,29.1 L140.4,25.2 C140.4,24.6 140.6,24.2 141.1,24.1 C141.3,24.1 141.5,24 141.6,24 C141.8,24 141.9,24 141.9,23.8 C141.9,23.7 141.8,23.6 141.5,23.6 C140.8,23.6 139.6,23.7 139.2,23.7 C138.7,23.7 137.5,23.6 136.5,23.6 C136.2,23.6 136.1,23.6 136.1,23.8 C136.1,23.9 136.2,24 136.4,24 C136.7,24 137,24 137.1,24.1 C137.7,24.2 137.9,24.5 137.9,25.2 L137.9,29.1 L137.9,29.5 C137.9,29.6 137.8,29.6 137.8,29.6 L131,29.6 L131,29.6 Z"/><path id="Path" fill="#002E6E" d="M60.1,59.1 C60.1,59.4 60,59.7 59.8,59.7 L59.6,59.7 C59.5,59.7 59.5,59.7 59.5,59.8 C59.5,59.9 59.6,59.9 59.6,59.9 L60.4,59.9 L61.2,59.9 C61.3,59.9 61.4,59.9 61.4,59.8 L61.3,59.7 L61,59.7 C60.9,59.7 60.8,59.6 60.8,59.5 L60.8,59.1 L61.2,56 C61.5,56.6 61.9,57.6 62,57.7 L62.9,59.5 C63,59.7 63.1,59.9 63.2,59.9 C63.3,59.9 63.3,59.8 63.5,59.5 L65.2,56 L65.7,59.4 L65.7,59.7 C65.6,59.7 65.6,59.7 65.6,59.8 C65.6,59.8 65.6,59.9 65.8,59.9 L67.4,59.9 C67.5,59.9 67.6,59.9 67.6,59.8 L67.5,59.7 C67.4,59.7 67.2,59.7 67,59.6 C66.8,59.5 66.7,59.3 66.6,58.8 L65.9,54 C65.9,53.8 65.8,53.8 65.8,53.8 C65.7,53.8 65.7,53.9 65.6,54 L63.5,58.5 L61.4,54.1 C61.3,53.9 61.3,53.9 61.2,53.9 C61.1,53.9 61.1,54 61.1,54.1 L60.1,59.1 L60.1,59.1 Z"/><path id="Shape" fill="#002E6E" d="M69.6,57.5 L69.6,57.5 L70.3,55.5 L70.3,55.4 L70.3,55.5 L71,57.4 L69.6,57.4 L69.6,57.5 Z M71.2,57.9 C71.2,57.9 71.3,57.9 71.2,57.9 L71.9,59.6 C71.9,59.7 71.9,59.8 71.8,59.8 C71.7,59.8 71.7,59.8 71.7,59.9 C71.7,60 71.8,60 71.9,60 L73.4,60 C73.7,60 73.8,60 73.8,59.9 C73.8,59.8 73.8,59.8 73.7,59.8 L73.4,59.8 C73.2,59.8 73,59.7 72.7,58.9 C72.2,57.7 70.9,54.5 70.8,54.1 C70.7,53.9 70.7,53.9 70.6,53.9 C70.5,53.9 70.5,54 70.4,54.2 L68.4,59.1 C68.2,59.5 68.1,59.8 67.7,59.8 L67.5,59.8 C67.4,59.8 67.4,59.8 67.4,59.9 C67.4,60 67.4,60 67.5,60 L68.4,60 L69.2,60 C69.3,60 69.3,60 69.3,59.9 C69.3,59.9 69.3,59.8 69.2,59.8 L69.1,59.8 C68.9,59.8 68.8,59.7 68.8,59.6 C68.8,59.5 68.8,59.3 68.9,59.1 L69.3,58 C69.3,58 69.3,57.9 69.4,57.9 L71.2,57.9 L71.2,57.9 Z"/><path id="Path" fill="#002E6E" d="M75.3,55.6 C75.5,55.7 76.3,56.7 77.2,57.6 L79.5,59.9 C79.6,60 79.7,60.1 79.8,60.1 C79.9,60.1 79.9,60 79.9,59.9 L80,55 C80,54.6 80.1,54.4 80.3,54.3 L80.5,54.3 C80.6,54.3 80.6,54.3 80.6,54.2 C80.6,54.1 80.5,54.1 80.4,54.1 L79.6,54.1 L78.7,54.1 C78.6,54.1 78.5,54.1 78.5,54.2 C78.5,54.2 78.5,54.3 78.6,54.3 L79,54.3 C79.2,54.4 79.3,54.5 79.3,55 L79.4,58.5 C79.3,58.4 78.2,57.2 77.7,56.7 C76.6,55.6 75.4,54.3 75.3,54.2 C75.2,54.1 75.1,54 75,54 C74.9,54 74.9,54.1 74.9,54.3 L74.8,58.9 C74.8,59.6 74.8,59.8 74.6,59.9 L74.2,59.9 C74.1,59.9 74.1,59.9 74.1,60 C74.1,60.1 74.2,60.1 74.3,60.1 L75.1,60.1 L76.1,60.1 C76.2,60.1 76.3,60.1 76.3,60 C76.3,60 76.3,59.9 76.2,59.9 C76.1,59.9 75.9,59.9 75.8,59.8 C75.6,59.7 75.5,59.5 75.5,58.9 L75.3,55.6 L75.3,55.6 Z"/><path id="Shape" fill="#002E6E" d="M83.1,57.5 L83.1,57.5 L83.8,55.5 L83.8,55.4 L83.8,55.5 L84.5,57.4 L83.1,57.4 L83.1,57.5 Z M84.7,57.9 C84.7,57.9 84.8,57.9 84.7,57.9 L85.4,59.6 C85.4,59.7 85.4,59.8 85.3,59.8 C85.2,59.8 85.2,59.8 85.2,59.9 C85.2,60 85.3,60 85.4,60 L86.9,60 C87.2,60 87.3,60 87.3,59.9 C87.3,59.8 87.3,59.8 87.2,59.8 L86.9,59.8 C86.7,59.8 86.5,59.7 86.2,58.9 C85.7,57.7 84.4,54.5 84.3,54.1 C84.2,53.9 84.2,53.9 84.1,53.9 C84,53.9 84,54 83.9,54.2 L81.9,59.1 C81.7,59.5 81.6,59.8 81.2,59.8 L81,59.8 C80.9,59.8 80.9,59.8 80.9,59.9 C80.9,60 80.9,60 81,60 L81.9,60 L82.7,60 C82.8,60 82.8,60 82.8,59.9 C82.8,59.9 82.8,59.8 82.7,59.8 L82.6,59.8 C82.4,59.8 82.3,59.7 82.3,59.6 C82.3,59.5 82.3,59.3 82.4,59.1 L82.8,58 C82.8,58 82.8,57.9 82.9,57.9 L84.7,57.9 L84.7,57.9 Z"/><path id="Path" fill="#002E6E" d="M88.9,57.6 L88.9,59.3 C88.9,59.5 88.8,59.7 88.7,59.7 L88.4,59.7 C88.3,59.7 88.3,59.7 88.3,59.8 C88.3,59.9 88.4,59.9 88.5,59.9 L89.5,59.9 L90.7,59.9 C90.8,59.9 90.8,59.9 90.8,59.8 C90.8,59.8 90.8,59.7 90.7,59.7 L90.3,59.7 C90.1,59.7 90,59.5 90,59.3 L90,57.6 L90,54.4 L91,54.4 C91.7,54.4 91.9,54.6 91.9,54.8 L91.9,54.9 C91.9,55 91.9,55.1 92,55.1 C92,55.1 92.1,55.1 92.1,55 L92.1,54.1 C92.1,54 92.1,53.9 92,53.9 C91.9,53.9 91.8,54 91.3,54 L88.2,54 L87.4,54 C87.2,54 87.1,53.9 87.1,53.9 C87.1,53.9 87,53.9 87,54 C87,54.1 86.8,54.8 86.8,54.9 C86.8,55 86.8,55 86.9,55 C86.9,55 87,55 87,54.9 C87,54.8 87.1,54.7 87.1,54.6 C87.2,54.4 87.4,54.4 87.9,54.4 L89.1,54.4 L89.1,57.6 L88.9,57.6 Z"/><path id="Path" fill="#002E6E" d="M93.4,57.4 C93.4,58.5 93.7,59.1 94.1,59.5 C94.7,60 95.4,60 95.8,60 C96.3,60 96.9,59.9 97.4,59.4 C98.1,58.8 98.1,57.9 98.1,57 L98.1,56.2 L98.1,54.5 C98.1,54.2 98.2,54.1 98.4,54.1 L98.6,54.1 C98.7,54.1 98.7,54.1 98.7,54 C98.7,53.9 98.6,53.9 98.5,53.9 L97.6,53.9 L96.7,53.9 C96.6,53.9 96.5,53.9 96.5,54 C96.5,54.1 96.5,54.1 96.6,54.1 L96.9,54.1 C97.2,54.2 97.2,54.3 97.2,54.5 L97.2,56.2 L97.2,57.2 C97.2,58 97.2,58.7 96.7,59.1 C96.4,59.4 96,59.5 95.6,59.5 C95.3,59.5 95,59.5 94.6,59.2 C94.2,58.9 94,58.4 94,57.3 L94,56.2 L94,54.5 C94,54.2 94.1,54.1 94.3,54.1 L94.5,54.1 C94.6,54.1 94.6,54.1 94.6,54 C94.6,53.9 94.5,53.9 94.4,53.9 L93.4,53.9 L92.3,53.9 C92.2,53.9 92.1,53.9 92.1,54 C92.1,54.1 92.1,54.1 92.2,54.1 L92.5,54.1 C92.8,54.2 92.8,54.3 92.8,54.5 L92.8,56.2 L92.8,57.4 L93.4,57.4 Z"/><path id="Path" fill="#002E6E" d="M104.4,56.5 L104.4,56.3 L104.4,54.6 C104.4,54.3 104.5,54.2 104.7,54.2 L104.9,54.2 C105,54.2 105,54.2 105,54.1 C105,54 104.9,54 104.8,54 L103.8,54 L102.7,54 C102.6,54 102.5,54 102.5,54.1 C102.5,54.2 102.5,54.2 102.6,54.2 L102.9,54.2 C103.2,54.3 103.2,54.4 103.2,54.6 L103.2,56.3 L103.2,57.7 L103.2,59.4 C103.2,59.6 103.1,59.8 103,59.8 L102.7,59.8 C102.6,59.8 102.6,59.8 102.6,59.9 C102.6,60 102.7,60 102.8,60 L103.8,60 L105,60 C105.1,60 105.2,60 105.2,59.9 C105.2,59.9 105.2,59.8 105.1,59.8 L104.7,59.8 C104.5,59.8 104.4,59.6 104.4,59.4 L104.4,57.7 L104.4,57 L107.4,57 L107.4,57.7 L107.4,59.4 C107.4,59.6 107.3,59.8 107.2,59.8 L106.9,59.8 C106.8,59.8 106.8,59.8 106.8,59.9 C106.8,60 106.9,60 107,60 L108,60 L109.2,60 C109.3,60 109.4,60 109.4,59.9 C109.4,59.9 109.4,59.8 109.3,59.8 L108.9,59.8 C108.7,59.8 108.6,59.6 108.6,59.4 L108.6,57.7 L108.6,56.3 L108.6,54.6 C108.6,54.3 108.7,54.2 108.9,54.2 L109.1,54.2 C109.2,54.2 109.2,54.2 109.2,54.1 C109.2,54 109.1,54 109,54 L108,54 L106.9,54 C106.8,54 106.7,54 106.7,54.1 C106.7,54.2 106.7,54.2 106.8,54.2 L107.1,54.2 C107.4,54.3 107.4,54.4 107.4,54.6 L107.4,56.3 L107.4,56.5 L107.4,56.6 L104.4,56.6 L104.4,56.5 Z"/><path id="Shape" fill="#002E6E" d="M111.8,57.5 C111.7,57.5 111.7,57.4 111.8,57.5 L112.5,55.5 L112.5,55.4 L112.5,55.5 L113.2,57.4 L111.8,57.4 L111.8,57.5 Z M113.4,57.9 L114.1,59.6 C114.1,59.7 114.1,59.8 114,59.8 C113.9,59.8 113.9,59.8 113.9,59.9 C113.9,60 114,60 114.1,60 L115.6,60 C115.9,60 116,60 116,59.9 C116,59.8 116,59.8 115.9,59.8 L115.6,59.8 C115.4,59.8 115.2,59.7 114.9,58.9 C114.4,57.7 113.2,54.5 113,54.1 C112.9,53.9 112.9,53.9 112.8,53.9 C112.7,53.9 112.7,54 112.6,54.2 L110.6,59.1 C110.4,59.5 110.3,59.8 109.9,59.8 L109.7,59.8 C109.6,59.8 109.6,59.8 109.6,59.9 C109.6,60 109.6,60 109.7,60 L110.6,60 L111.4,60 C111.5,60 111.5,60 111.5,59.9 C111.5,59.9 111.5,59.8 111.4,59.8 L111.3,59.8 C111.1,59.8 111,59.7 111,59.6 C111,59.5 111,59.3 111.1,59.1 L111.5,58 C111.5,58 111.5,57.9 111.6,57.9 L113.4,57.9 L113.4,57.9 Z"/><path id="Path" fill="#002E6E" d="M116.7,57.4 C116.7,58.5 117,59.1 117.4,59.5 C118,60 118.7,60 119.1,60 C119.6,60 120.2,59.9 120.7,59.4 C121.4,58.8 121.4,57.9 121.4,57 L121.4,56.2 L121.4,54.5 C121.4,54.2 121.5,54.1 121.7,54.1 L121.9,54.1 C122,54.1 122,54.1 122,54 C122,53.9 121.9,53.9 121.8,53.9 L120.9,53.9 L120,53.9 C119.9,53.9 119.8,53.9 119.8,54 C119.8,54.1 119.8,54.1 119.9,54.1 L120.2,54.1 C120.5,54.2 120.5,54.3 120.5,54.5 L120.5,56.2 L120.5,57.2 C120.5,58 120.5,58.7 120,59.1 C119.7,59.4 119.3,59.5 118.9,59.5 C118.6,59.5 118.3,59.5 117.9,59.2 C117.5,58.9 117.3,58.4 117.3,57.3 L117.3,56.2 L117.3,54.5 C117.3,54.2 117.4,54.1 117.6,54.1 L117.8,54.1 C117.9,54.1 117.9,54.1 117.9,54 C117.9,53.9 117.8,53.9 117.7,53.9 L116.7,53.9 L115.6,53.9 C115.5,53.9 115.4,53.9 115.4,54 C115.4,54.1 115.4,54.1 115.5,54.1 L115.8,54.1 C116.1,54.2 116.1,54.3 116.1,54.5 L116.1,56.2 L116.1,57.4 L116.7,57.4 Z"/><path id="Shape" fill="#002E6E" d="M126.6,59.6 C125.1,59.6 124.2,58.3 124.2,56.7 C124.2,54.8 125.2,54.3 126.1,54.3 C127.4,54.3 128.4,55.4 128.4,57.1 C128.5,59.4 127.2,59.6 126.6,59.6 M126.3,60 C128.3,60 129.5,58.6 129.5,56.8 C129.5,55 128.3,53.9 126.3,53.9 C124,53.9 123.1,55.6 123.1,57 C123.2,58.3 124.1,60 126.3,60"/><path id="Shape" fill="#002E6E" d="M131.9,54.5 C131.9,54.4 131.9,54.4 132,54.4 L132.4,54.4 C132.9,54.4 133.6,54.7 133.6,55.8 C133.6,56.4 133.4,56.8 133.1,57 C133,57.1 132.9,57.1 132.5,57.1 C132.3,57.1 132.1,57.1 131.9,57 C131.8,57 131.8,56.9 131.8,56.9 L131.8,54.5 L131.9,54.5 Z M131,57.6 L131,59.3 C131,59.5 130.9,59.7 130.8,59.7 L130.5,59.7 C130.4,59.7 130.4,59.7 130.4,59.8 C130.4,59.9 130.5,59.9 130.6,59.9 L131.6,59.9 L132.8,59.9 C132.9,59.9 133,59.9 133,59.8 C133,59.8 133,59.7 132.9,59.7 L132.5,59.7 C132.3,59.7 132.2,59.5 132.2,59.3 L132.2,57.6 L132.2,57.5 C132.2,57.5 132.2,57.4 132.3,57.4 L133,57.4 C133.1,57.4 133.1,57.4 133.1,57.5 C133.2,57.6 133.6,58.1 133.9,58.6 C134.3,59.2 134.6,59.6 135,59.7 C135.2,59.8 135.4,59.8 135.8,59.8 L136.5,59.8 C136.6,59.8 136.6,59.8 136.6,59.7 C136.6,59.7 136.6,59.6 136.5,59.6 L136.3,59.6 C136.2,59.6 135.9,59.5 135.4,59.1 C134.9,58.6 134.4,57.9 133.7,57 C134.5,56.4 134.7,55.8 134.7,55.3 C134.7,54.8 134.4,54.4 134.2,54.2 C133.8,53.9 133.3,53.9 132.8,53.9 L131.7,53.9 L130.6,53.9 C130.5,53.9 130.4,53.9 130.4,54 C130.4,54.1 130.4,54.1 130.5,54.1 L130.8,54.1 C131.1,54.2 131.1,54.3 131.1,54.5 L131.1,56.2 L131.1,57.6 L131,57.6 Z"/><path id="Shape" fill="#002E6E" d="M138.2,57.5 C138.1,57.5 138.1,57.4 138.2,57.5 L138.9,55.5 L138.9,55.4 L138.9,55.5 L139.6,57.4 L138.2,57.4 L138.2,57.5 Z M139.8,57.9 L140.5,59.6 C140.5,59.7 140.5,59.8 140.4,59.8 C140.3,59.8 140.3,59.8 140.3,59.9 C140.3,60 140.4,60 140.5,60 L142,60 C142.3,60 142.4,60 142.4,59.9 C142.4,59.8 142.4,59.8 142.3,59.8 L142,59.8 C141.8,59.8 141.6,59.7 141.3,58.9 C140.8,57.7 139.5,54.5 139.4,54.1 C139.3,53.9 139.3,53.9 139.2,53.9 C139.1,53.9 139.1,54 139,54.2 L137,59.1 C136.8,59.5 136.7,59.8 136.3,59.8 L136.1,59.8 C136,59.8 136,59.8 136,59.9 C136,60 136,60 136.1,60 L137,60 L137.8,60 C137.9,60 137.9,60 137.9,59.9 C137.9,59.9 137.9,59.8 137.8,59.8 L137.7,59.8 C137.5,59.8 137.4,59.7 137.4,59.6 C137.4,59.5 137.4,59.3 137.5,59.1 L137.9,58 C137.9,58 137.9,57.9 138,57.9 L139.8,57.9 L139.8,57.9 Z"/><path id="Path" fill="#002E6E" d="M97.2,52.2 L97.3,52.2 L97.4,51.9 C97.4,51.8 97.4,51.8 97.3,51.8 L94.5,51.8 C94.4,51.8 94.4,51.8 94.4,51.9 L94.3,52.2 C94.3,52.2 94.3,52.3 94.4,52.3 L97.2,52.3 L97.2,52.2 Z"/><path id="Path" fill="#F7941E" d="M6.6,40.3 L10.2,40.3 C15.9,27.8 25.1,23.6 31.5,23.6 C38,23.6 40.4,27.5 40.4,30.8 C40.4,35.8 35.7,37.8 35.7,37.8 C35.7,37.8 36.5,37.5 36.4,35.6 C36.4,33.5 34.9,32.7 32.5,32.7 C30.2,32.7 27.3,34.5 27.3,37.2 C27.3,39.7 29,41.6 32.6,41.6 C39.4,41.6 48,36.8 48,29.7 C48,23.3 42.4,18.9 35.7,18.6 C22.7,18 14.7,28 14.7,28 C23.8,10.5 45.5,0 45.5,0 L30.4,0 C30.4,0 11.9,17.5 6.6,40.3"/></g></g></g></svg>