<?xml version="1.0" encoding="UTF-8"?>
<svg width="308px" height="81px" viewBox="0 0 308 81" version="1.1" xmlns="http://www.w3.org/2000/svg" xmlns:xlink="http://www.w3.org/1999/xlink">
    <title>Artboard</title>
    <g id="Artboard" stroke="none" stroke-width="1" fill="none" fill-rule="evenodd">
        <path d="M29.0993924,-0.000325916714 C13.0088842,-0.000325916714 -8.14791788e-05,13.0086397 -8.14791788e-05,29.2132188 C-8.14791788e-05,33.4354698 1.14144181,37.8858626 2.39622116,40.9665903 C11.1829358,59.7956137 28.4149673,74.402386 29.0993924,74.402386 C29.7838175,74.402386 47.015849,59.7956137 55.8025636,40.7384486 C57.0573429,37.6577209 58.1988662,33.2073281 58.1988662,28.9850771 C58.1988662,13.0086397 45.1899006,-0.000325916714 29.0993924,-0.000325916714" id="Fill-1" fill="#ED1C24"></path>
        <path d="M41.7885523,17.6195465 C38.8903379,14.7221469 34.1751378,14.7221469 31.2769234,17.6195465 L16.4102325,32.4935705 C15.0063462,33.8974568 14.2331088,35.7641448 14.2331088,37.7489775 C14.2331088,39.7346251 15.0063462,41.6021279 16.4102325,43.0051994 C17.8589323,44.4547139 19.7631007,45.1790638 21.6664543,45.1790638 C23.5698079,45.1790638 25.4731615,44.4547139 26.9218613,43.0051994 L41.7885523,28.1319901 C43.1924385,26.7281038 43.9656759,24.8614159 43.9656759,22.8757683 C43.9656759,20.8901207 43.1924385,19.0234327 41.7885523,17.6195465 M40.682065,27.0246881 L33.2153131,34.4955139 L24.9166587,26.1968596 L32.3834107,18.7268485 C33.5273783,17.5828808 35.0306692,17.010897 36.5323304,17.010897 C38.0348065,17.010897 39.5380973,17.5828808 40.682065,18.7268485 C41.7901818,19.8349653 42.4004609,21.3081089 42.4004609,22.8757683 C42.4004609,24.4426129 41.7901818,25.9165712 40.682065,27.0246881" id="Fill-4" fill="#FFFFFF"></path>
        <path d="M70.4292983,53.2173107 C70.4292983,54.617123 71.5414891,55.7293138 72.982041,55.7293138 C74.3826681,55.7293138 75.4940441,54.617123 75.4940441,53.2173107 L75.4940441,46.2581741 L81.2179564,46.2581741 C87.5586661,46.2581741 92.7472602,42.8816769 92.7472602,36.4171189 L92.7472602,36.3348249 C92.7472602,30.5286186 88.5470085,26.6990973 81.7940142,26.6990973 L72.982041,26.6990973 C71.5414891,26.6990973 70.4292983,27.811288 70.4292983,29.2518399 L70.4292983,53.2173107 Z M75.4940441,41.688007 L75.4940441,31.3108188 L81.3825443,31.3108188 C85.1705113,31.3108188 87.6002204,33.0821761 87.6002204,36.4578585 L87.6002204,36.5409672 C87.6002204,39.5467341 85.2120657,41.688007 81.3825443,41.688007 L75.4940441,41.688007 Z M95.6299935,28.1820183 C95.6299935,29.6641246 96.8644031,30.652467 98.4711725,30.652467 C100.076312,30.652467 101.312351,29.6641246 101.312351,28.1820183 L101.312351,27.9343216 C101.312351,26.4522153 100.076312,25.5054273 98.4711725,25.5054273 C96.8644031,25.5054273 95.6299935,26.4522153 95.6299935,27.9343216 L95.6299935,28.1820183 Z M95.999909,53.2580503 C95.999909,54.6586774 97.1120998,55.7293138 98.4711725,55.7293138 C99.8709847,55.7293138 100.982361,54.6586774 100.982361,53.2580503 L100.982361,36.0463886 C100.982361,34.6465763 99.8709847,33.5343855 98.4711725,33.5343855 C97.0705454,33.5343855 95.999909,34.6465763 95.999909,36.0463886 L95.999909,53.2580503 Z M106.1294,53.2580503 C106.1294,54.6586774 107.240776,55.7293138 108.599849,55.7293138 C109.999661,55.7293138 111.111852,54.6586774 111.111852,53.2580503 L111.111852,27.7289941 C111.111852,26.3699214 109.999661,25.2585454 108.599849,25.2585454 C107.200037,25.2585454 106.1294,26.3699214 106.1294,27.7289941 L106.1294,53.2580503 Z M116.258892,53.2580503 C116.258892,54.6586774 117.370268,55.7293138 118.729341,55.7293138 C120.129153,55.7293138 121.241344,54.6586774 121.241344,53.2580503 L121.241344,27.7289941 C121.241344,26.3699214 120.129153,25.2585454 118.729341,25.2585454 C117.329528,25.2585454 116.258892,26.3699214 116.258892,27.7289941 L116.258892,53.2580503 Z M126.676005,52.9704288 C126.676005,54.4117955 127.788196,55.5231715 129.229562,55.5231715 L137.423923,55.5231715 C146.481964,55.5231715 152.741194,49.2232014 152.741194,41.1111344 L152.741194,41.0288404 C152.741194,32.9167734 146.481964,26.6990973 137.423923,26.6990973 L129.229562,26.6990973 C127.788196,26.6990973 126.676005,27.811288 126.676005,29.2518399 L126.676005,52.9704288 Z M131.740751,50.91145 L131.740751,31.3108188 L137.423923,31.3108188 C143.476197,31.3108188 147.429567,35.4703308 147.429567,41.1111344 L147.429567,41.1934283 C147.429567,46.8350467 143.476197,50.91145 137.423923,50.91145 L131.740751,50.91145 Z M155.829255,53.2580503 C155.829255,54.6586774 156.941446,55.7293138 158.299704,55.7293138 C159.700331,55.7293138 160.811707,54.617123 160.811707,53.2580503 L160.811707,46.8350467 C160.811707,41.688007 163.241416,38.9698616 166.782501,38.3522494 C167.894692,38.1461071 168.759186,37.281613 168.759186,35.9640947 C168.759186,34.522728 167.853137,33.493646 166.288737,33.493646 C164.10591,33.493646 161.964637,35.5526248 160.811707,38.2699554 L160.811707,36.0463886 C160.811707,34.6465763 159.700331,33.5343855 158.299704,33.5343855 C156.899891,33.5343855 155.829255,34.6465763 155.829255,36.0463886 L155.829255,53.2580503 Z M181.194538,56.0169353 C187.906793,56.0169353 192.846875,50.8698956 192.846875,44.6937739 L192.846875,44.6114799 C192.846875,38.3938038 187.947532,33.329058 181.276832,33.329058 C174.606132,33.329058 169.665234,38.4760977 169.665234,44.6937739 L169.665234,44.7760678 C169.665234,50.9521896 174.565392,56.0169353 181.194538,56.0169353 L181.194538,56.0169353 Z M181.276832,51.6529105 C177.406571,51.6529105 174.647686,48.4817409 174.647686,44.6937739 L174.647686,44.6114799 C174.647686,40.8226981 177.200429,37.6930828 181.194538,37.6930828 C185.106354,37.6930828 187.865238,40.8642525 187.865238,44.6937739 L187.865238,44.7760678 C187.865238,48.5232952 185.312496,51.6529105 181.276832,51.6529105 L181.276832,51.6529105 Z M196.678026,59.8464567 C196.678026,61.2470838 197.789402,62.3169054 199.14766,62.3169054 C200.549102,62.3169054 201.659663,61.2470838 201.659663,59.8464567 L201.659663,52.1466743 C203.183324,54.1640988 205.446816,55.9761957 209.071824,55.9761957 C214.218049,55.9761957 219.159761,51.8997924 219.159761,44.6937739 L219.159761,44.6114799 C219.159761,37.3639069 214.176495,33.329058 209.071824,33.329058 C205.530739,33.329058 203.264803,35.1403402 201.659663,37.4054613 L201.659663,36.0463886 C201.659663,34.6465763 200.549102,33.5343855 199.14766,33.5343855 C197.747033,33.5343855 196.678026,34.6465763 196.678026,36.0463886 L196.678026,59.8464567 Z M207.87734,51.6529105 C204.500842,51.6529105 201.53663,48.8524711 201.53663,44.6937739 L201.53663,44.6114799 C201.53663,40.4519678 204.500842,37.6523432 207.87734,37.6523432 C211.253837,37.6523432 214.095016,40.4112282 214.095016,44.6114799 L214.095016,44.6937739 C214.095016,48.9763195 211.295391,51.6529105 207.87734,51.6529105 L207.87734,51.6529105 Z" id="Fill-1" fill="#FFFFFF"></path>
        <path d="M221.168468,28.8965907 C220.641297,28.8965907 220.159755,29.0310313 219.724657,29.3007274 C219.289558,29.5704235 218.94653,29.9330059 218.693945,30.3884745 C218.44136,30.8431283 218.315067,31.3344477 218.315067,31.8624328 C218.315067,32.3896031 218.43973,32.8801077 218.689871,33.3323172 C218.939197,33.7845266 219.28141,34.1438498 219.716509,34.4102867 C220.151607,34.6767236 220.62989,34.8103495 221.151357,34.8103495 C221.679342,34.8103495 222.161699,34.6759088 222.599242,34.4062128 C223.0376,34.1365167 223.382257,33.7739343 223.634842,33.3192805 C223.887428,32.8638119 224.013721,32.3724925 224.013721,31.8445074 C224.013721,31.3116336 223.887428,30.8186845 223.634842,30.3664751 C223.382257,29.9142656 223.038415,29.556572 222.603316,29.2925795 C222.169032,29.028587 221.690749,28.8965907 221.168468,28.8965907 L221.168468,28.8965907 Z M221.151357,34.2367361 C220.725221,34.2367361 220.334936,34.1291836 219.981316,33.9148933 C219.627696,33.7006031 219.349852,33.411352 219.148599,33.0495844 C218.94653,32.6870021 218.845496,32.2910133 218.845496,31.8624328 C218.845496,31.4330375 218.947345,31.0362339 219.152673,30.6703924 C219.357185,30.3053657 219.637474,30.014485 219.994353,29.7969356 C220.350417,29.5793862 220.742332,29.4702041 221.168468,29.4702041 C221.594604,29.4702041 221.984889,29.5777566 222.338509,29.7920469 C222.692128,30.0071519 222.970787,30.2955882 223.176115,30.6573558 C223.380627,31.0199381 223.483291,31.4159269 223.483291,31.8445074 C223.483291,32.2739027 223.380627,32.6723358 223.176115,33.0406217 C222.970787,33.4089076 222.690499,33.7006031 222.334435,33.9148933 C221.977556,34.1291836 221.584011,34.2367361 221.151357,34.2367361 L221.151357,34.2367361 Z M222.380878,31.3140779 C222.380878,30.9954943 222.280658,30.750242 222.081849,30.5791357 C221.882225,30.4088443 221.600307,30.3224763 221.236095,30.3224763 L220.08235,30.3224763 L220.08235,33.2100984 L220.61278,33.2100984 L220.61278,32.3578262 L221.236095,32.3578262 L221.33713,32.3578262 L221.833338,33.2100984 L222.439543,33.2100984 L221.817042,32.2535329 C221.996296,32.1720537 222.134811,32.0522793 222.2334,31.8925801 C222.331175,31.7328809 222.380878,31.54059 222.380878,31.3140779 L222.380878,31.3140779 Z M220.61278,30.7746858 L221.236095,30.7746858 C221.438164,30.7746858 221.594604,30.8219437 221.707045,30.9140152 C221.819486,31.0069014 221.875707,31.1429717 221.875707,31.3230406 C221.875707,31.5031096 221.819486,31.6432538 221.707045,31.7451028 C221.594604,31.846137 221.438164,31.8966541 221.236095,31.8966541 L220.61278,31.8966541 L220.61278,30.7746858 Z" id="Fill-3" fill="#5B5B5B"></path>
        <path d="M70.4292983,53.2173107 C70.4292983,54.617123 71.5414891,55.7293138 72.982041,55.7293138 C74.3826681,55.7293138 75.4940441,54.617123 75.4940441,53.2173107 L75.4940441,46.2581741 L81.2179564,46.2581741 C87.5586661,46.2581741 92.7472602,42.8816769 92.7472602,36.4171189 L92.7472602,36.3348249 C92.7472602,30.5286186 88.5470085,26.6990973 81.7940142,26.6990973 L72.982041,26.6990973 C71.5414891,26.6990973 70.4292983,27.811288 70.4292983,29.2518399 L70.4292983,53.2173107 Z M75.4940441,41.688007 L75.4940441,31.3108188 L81.3825443,31.3108188 C85.1705113,31.3108188 87.6002204,33.0821761 87.6002204,36.4578585 L87.6002204,36.5409672 C87.6002204,39.5467341 85.2120657,41.688007 81.3825443,41.688007 L75.4940441,41.688007 Z M95.6299935,28.1820183 C95.6299935,29.6641246 96.8644031,30.652467 98.4711725,30.652467 C100.076312,30.652467 101.312351,29.6641246 101.312351,28.1820183 L101.312351,27.9343216 C101.312351,26.4522153 100.076312,25.5054273 98.4711725,25.5054273 C96.8644031,25.5054273 95.6299935,26.4522153 95.6299935,27.9343216 L95.6299935,28.1820183 Z M95.999909,53.2580503 C95.999909,54.6586774 97.1120998,55.7293138 98.4711725,55.7293138 C99.8709847,55.7293138 100.982361,54.6586774 100.982361,53.2580503 L100.982361,36.0463886 C100.982361,34.6465763 99.8709847,33.5343855 98.4711725,33.5343855 C97.0705454,33.5343855 95.999909,34.6465763 95.999909,36.0463886 L95.999909,53.2580503 Z M106.1294,53.2580503 C106.1294,54.6586774 107.240776,55.7293138 108.599849,55.7293138 C109.999661,55.7293138 111.111852,54.6586774 111.111852,53.2580503 L111.111852,27.7289941 C111.111852,26.3699214 109.999661,25.2585454 108.599849,25.2585454 C107.200037,25.2585454 106.1294,26.3699214 106.1294,27.7289941 L106.1294,53.2580503 Z M116.258892,53.2580503 C116.258892,54.6586774 117.370268,55.7293138 118.729341,55.7293138 C120.129153,55.7293138 121.241344,54.6586774 121.241344,53.2580503 L121.241344,27.7289941 C121.241344,26.3699214 120.129153,25.2585454 118.729341,25.2585454 C117.329528,25.2585454 116.258892,26.3699214 116.258892,27.7289941 L116.258892,53.2580503 Z M126.676005,52.9704288 C126.676005,54.4117955 127.788196,55.5231715 129.229562,55.5231715 L137.423923,55.5231715 C146.481964,55.5231715 152.741194,49.2232014 152.741194,41.1111344 L152.741194,41.0288404 C152.741194,32.9167734 146.481964,26.6990973 137.423923,26.6990973 L129.229562,26.6990973 C127.788196,26.6990973 126.676005,27.811288 126.676005,29.2518399 L126.676005,52.9704288 Z M131.740751,50.91145 L131.740751,31.3108188 L137.423923,31.3108188 C143.476197,31.3108188 147.429567,35.4703308 147.429567,41.1111344 L147.429567,41.1934283 C147.429567,46.8350467 143.476197,50.91145 137.423923,50.91145 L131.740751,50.91145 Z M155.829255,53.2580503 C155.829255,54.6586774 156.941446,55.7293138 158.299704,55.7293138 C159.700331,55.7293138 160.811707,54.617123 160.811707,53.2580503 L160.811707,46.8350467 C160.811707,41.688007 163.241416,38.9698616 166.782501,38.3522494 C167.894692,38.1461071 168.759186,37.281613 168.759186,35.9640947 C168.759186,34.522728 167.853137,33.493646 166.288737,33.493646 C164.10591,33.493646 161.964637,35.5526248 160.811707,38.2699554 L160.811707,36.0463886 C160.811707,34.6465763 159.700331,33.5343855 158.299704,33.5343855 C156.899891,33.5343855 155.829255,34.6465763 155.829255,36.0463886 L155.829255,53.2580503 Z M181.194538,56.0169353 C187.906793,56.0169353 192.846875,50.8698956 192.846875,44.6937739 L192.846875,44.6114799 C192.846875,38.3938038 187.947532,33.329058 181.276832,33.329058 C174.606132,33.329058 169.665234,38.4760977 169.665234,44.6937739 L169.665234,44.7760678 C169.665234,50.9521896 174.565392,56.0169353 181.194538,56.0169353 L181.194538,56.0169353 Z M181.276832,51.6529105 C177.406571,51.6529105 174.647686,48.4817409 174.647686,44.6937739 L174.647686,44.6114799 C174.647686,40.8226981 177.200429,37.6930828 181.194538,37.6930828 C185.106354,37.6930828 187.865238,40.8642525 187.865238,44.6937739 L187.865238,44.7760678 C187.865238,48.5232952 185.312496,51.6529105 181.276832,51.6529105 L181.276832,51.6529105 Z M196.678026,59.8464567 C196.678026,61.2470838 197.789402,62.3169054 199.14766,62.3169054 C200.549102,62.3169054 201.659663,61.2470838 201.659663,59.8464567 L201.659663,52.1466743 C203.183324,54.1640988 205.446816,55.9761957 209.071824,55.9761957 C214.218049,55.9761957 219.159761,51.8997924 219.159761,44.6937739 L219.159761,44.6114799 C219.159761,37.3639069 214.176495,33.329058 209.071824,33.329058 C205.530739,33.329058 203.264803,35.1403402 201.659663,37.4054613 L201.659663,36.0463886 C201.659663,34.6465763 200.549102,33.5343855 199.14766,33.5343855 C197.747033,33.5343855 196.678026,34.6465763 196.678026,36.0463886 L196.678026,59.8464567 Z M207.87734,51.6529105 C204.500842,51.6529105 201.53663,48.8524711 201.53663,44.6937739 L201.53663,44.6114799 C201.53663,40.4519678 204.500842,37.6523432 207.87734,37.6523432 C211.253837,37.6523432 214.095016,40.4112282 214.095016,44.6114799 L214.095016,44.6937739 C214.095016,48.9763195 211.295391,51.6529105 207.87734,51.6529105 L207.87734,51.6529105 Z" id="Fill-5" fill="#5B5B5B"></path>
        <path d="M209.071824,33.067058 C214.73739,33.067058 219.275659,37.5880255 219.418303,44.2857094 L219.421761,44.6937739 C219.421761,51.5564652 214.840371,56.2381957 209.071824,56.2381957 C206.233762,56.2381957 204.038672,55.1865452 202.268522,53.2829263 L202.058129,53.0504154 L201.921,52.89 L201.921663,59.8464567 C201.921663,61.2691165 200.87798,62.3965803 199.493555,62.5588312 L199.318778,62.5740369 L199.14766,62.5789054 C197.686931,62.5789054 196.50642,61.4653108 196.420979,60.0152236 L196.416026,59.8464567 L196.416026,36.0463886 C196.416026,34.4945907 197.60938,33.2723855 199.14766,33.2723855 C200.636018,33.2723855 201.830236,34.4119913 201.916655,35.8760636 L201.921663,36.0463886 L201.921,36.622 L202.037599,36.4781776 C203.722678,34.4305917 205.782482,33.2536302 208.414815,33.0874672 L208.746853,33.0719716 L209.071824,33.067058 Z M209.071824,33.591058 C206.085661,33.591058 203.860291,34.8822229 202.064238,37.2942336 L201.873432,37.5569445 L201.397663,38.2283331 L201.397663,36.0463886 C201.397663,34.7906836 200.403812,33.7963855 199.14766,33.7963855 C197.955792,33.7963855 197.024181,34.6974469 196.945424,35.8830147 L196.940026,36.0463886 L196.940026,59.8464567 C196.940026,61.0872545 197.918813,62.0549054 199.14766,62.0549054 C200.358626,62.0549054 201.311566,61.1750682 201.392141,60.0074111 L201.397663,59.8464567 L201.397663,51.3650432 L201.868735,51.9887727 C203.678345,54.3848119 205.958303,55.7141957 209.071824,55.7141957 C214.458623,55.7141957 218.754857,51.4141092 218.894269,45.0154457 L218.897761,44.6114799 C218.897761,38.0225539 214.537456,33.591058 209.071824,33.591058 Z M207.87734,37.3903432 C211.461267,37.3903432 214.239172,40.2902835 214.353362,44.3507423 L214.357016,44.6937739 C214.357016,48.9597574 211.591526,51.9149105 207.87734,51.9149105 C204.282641,51.9149105 201.397098,48.9669239 201.278427,44.9515085 L201.27463,44.6114799 C201.27463,40.4645688 204.205886,37.3903432 207.87734,37.3903432 Z M207.87734,37.9143432 C204.57441,37.9143432 201.916443,40.6266453 201.80244,44.3610256 L201.79863,44.6937739 C201.79863,48.5561897 204.501294,51.3909105 207.87734,51.3909105 C211.218147,51.3909105 213.71974,48.7970844 213.829273,44.9574797 L213.833016,44.6114799 C213.833016,40.6964905 211.239579,37.9143432 207.87734,37.9143432 Z M181.276832,33.067058 C187.886879,33.067058 192.950999,37.9926586 193.105254,44.314151 L193.108875,44.6937739 C193.108875,51.1367023 187.928484,56.2789353 181.194538,56.2789353 C174.625308,56.2789353 169.561123,51.3532279 169.406856,45.0715032 L169.403234,44.6937739 C169.403234,38.2221029 174.570998,33.067058 181.276832,33.067058 Z M181.276832,33.591058 C174.960368,33.591058 170.081749,38.359218 169.930834,44.4049311 L169.927234,44.7760678 C169.927234,50.9078084 174.811177,55.7549353 181.194538,55.7549353 C187.539241,55.7549353 192.42998,50.9986266 192.581267,44.9812546 L192.584875,44.6114799 C192.584875,38.4380607 187.701634,33.591058 181.276832,33.591058 Z M181.194538,37.4310828 C185.084202,37.4310828 188.00592,40.4971628 188.123554,44.4458513 L188.127238,44.7760678 C188.127238,48.8305839 185.309629,51.9149105 181.276832,51.9149105 C177.42739,51.9149105 174.506967,48.8483528 174.38937,44.9391745 L174.385686,44.6114799 C174.385686,40.5280704 177.190353,37.4310828 181.194538,37.4310828 Z M181.194538,37.9550828 C177.572467,37.9550828 175.022489,40.6838884 174.913332,44.3647015 L174.909686,44.6937739 C174.909686,48.4383834 177.645873,51.3909105 181.276832,51.3909105 C184.927987,51.3909105 187.489913,48.6733566 187.599576,45.0209285 L187.603238,44.6937739 C187.603238,40.9071465 184.866597,37.9550828 181.194538,37.9550828 Z M81.7940142,26.4370973 C88.5184876,26.4370973 92.8650358,30.2014414 93.0057384,36.0411194 L93.0092602,36.4171189 C93.0092602,42.5794153 88.3036201,46.3976161 81.5465035,46.5172762 L81.2179564,46.5201741 L75.756,46.52 L75.7560441,53.2173107 C75.7560441,54.6453742 74.7057894,55.8037632 73.3264464,55.9706563 L73.1523667,55.9863017 L72.982041,55.9913138 C71.4621505,55.9913138 70.2593522,54.8575524 70.1723409,53.3882851 L70.1672983,53.2173107 L70.1672983,29.2518399 C70.1672983,27.7253024 71.3074036,26.5286588 72.8074105,26.4421125 L72.982041,26.4370973 L81.7940142,26.4370973 Z M81.7940142,26.9610973 L72.982041,26.9610973 C71.7401816,26.9610973 70.7747283,27.8748064 70.6964299,29.091476 L70.6912983,29.2518399 L70.6912983,53.2173107 C70.6912983,54.4779464 71.6917873,55.4673138 72.982041,55.4673138 C74.1853559,55.4673138 75.1487263,54.5538761 75.2269181,53.3728254 L75.2320441,53.2173107 L75.2320441,45.9961741 L81.2179564,45.9961741 C87.7753552,45.9961741 92.3338651,42.4771026 92.4815621,36.7074701 L92.4852602,36.3348249 C92.4852602,30.7270992 88.4906062,27.0840268 82.1199839,26.9641488 L81.7940142,26.9610973 Z M81.3825443,31.0488188 C85.3202308,31.0488188 87.7500224,32.9211901 87.8584335,36.2250403 L87.8622204,36.5409672 C87.8622204,39.6881538 85.3940438,41.8499894 81.6460909,41.946629 L81.3825443,41.950007 L75.2320441,41.950007 L75.2320441,31.0488188 L81.3825443,31.0488188 Z M81.3825443,31.5728188 L75.756,31.572 L75.756,41.426007 L81.3825443,41.426007 C84.9176449,41.426007 87.2236865,39.5460328 87.3340734,36.7522029 L87.3382204,36.4578585 C87.3382204,33.4039573 85.2505738,31.6592366 81.6550285,31.575945 L81.3825443,31.5728188 Z M98.4711725,33.2723855 C96.9326328,33.2723855 95.737909,34.4948681 95.737909,36.0463886 L95.737909,53.2580503 C95.737909,54.7897359 96.9535841,55.9913138 98.4711725,55.9913138 C100.022558,55.9913138 101.244361,54.7967168 101.244361,53.2580503 L101.244361,36.0463886 C101.244361,34.5017467 100.015552,33.2723855 98.4711725,33.2723855 Z M98.4711725,33.7963855 C99.7261024,33.7963855 100.720361,34.7910911 100.720361,36.0463886 L100.720361,53.2580503 C100.720361,54.5046457 99.7357685,55.4673138 98.4711725,55.4673138 C97.241622,55.4673138 96.261909,54.4989617 96.261909,53.2580503 L96.261909,36.0463886 C96.261909,34.7816058 97.224758,33.7963855 98.4711725,33.7963855 Z M108.599849,24.9965454 C107.068713,24.9965454 105.8674,26.2116784 105.8674,27.7289941 L105.8674,53.2580503 C105.8674,54.7898616 107.082396,55.9913138 108.599849,55.9913138 C110.15137,55.9913138 111.373852,54.79659 111.373852,53.2580503 L111.373852,27.7289941 C111.373852,26.2184349 110.137509,24.9965454 108.599849,24.9965454 Z M108.599849,25.5205454 C109.849482,25.5205454 110.849852,26.5092204 110.849852,27.7289941 L110.849852,53.2580503 C110.849852,54.5044648 109.864632,55.4673138 108.599849,55.4673138 C107.370486,55.4673138 106.3914,54.4991415 106.3914,53.2580503 L106.3914,27.7289941 C106.3914,26.4997423 107.35946,25.5205454 108.599849,25.5205454 Z M118.729341,24.9965454 C117.198204,24.9965454 115.996892,26.2116784 115.996892,27.7289941 L115.996892,53.2580503 C115.996892,54.7898616 117.211887,55.9913138 118.729341,55.9913138 C120.280861,55.9913138 121.503344,54.79659 121.503344,53.2580503 L121.503344,27.7289941 C121.503344,26.2184349 120.267001,24.9965454 118.729341,24.9965454 Z M118.729341,25.5205454 C119.978974,25.5205454 120.979344,26.5092204 120.979344,27.7289941 L120.979344,53.2580503 C120.979344,54.5044648 119.994123,55.4673138 118.729341,55.4673138 C117.499978,55.4673138 116.520892,54.4991415 116.520892,53.2580503 L116.520892,27.7289941 C116.520892,26.4997423 117.488951,25.5205454 118.729341,25.5205454 Z M166.288737,33.231646 L166.07971,33.2375311 C164.270797,33.3390921 162.468264,34.7474163 161.226256,36.8614424 L161.073,37.129 L161.073707,36.0463886 C161.073707,34.5016085 159.84476,33.2723855 158.299704,33.2723855 C156.76184,33.2723855 155.567255,34.4950073 155.567255,36.0463886 L155.567255,53.2580503 C155.567255,54.7895974 156.782794,55.9913138 158.299704,55.9913138 C159.837781,55.9913138 161.073707,54.7690057 161.073707,53.2580503 L161.073707,46.8350467 C161.073707,42.0704242 163.19332,39.2442054 166.827518,38.610353 C168.129312,38.369083 169.021186,37.3480452 169.021186,35.9640947 C169.021186,34.3350766 167.956549,33.231646 166.288737,33.231646 Z M166.288737,33.755646 C167.662872,33.755646 168.497186,34.6203606 168.497186,35.9640947 C168.497186,37.0899816 167.790558,37.8989456 166.734753,38.094637 C162.839498,38.7740062 160.549707,41.827135 160.549707,46.8350467 L160.549707,53.2580503 C160.549707,54.478301 159.549675,55.4673138 158.299704,55.4673138 C157.070858,55.4673138 156.091255,54.4988502 156.091255,53.2580503 L156.091255,36.0463886 C156.091255,34.7817187 157.053993,33.7963855 158.299704,33.7963855 C159.555337,33.7963855 160.549707,34.7909793 160.549707,36.0463886 L160.549707,39.5582489 L161.052895,38.3722888 C162.21616,35.6306021 164.305901,33.755646 166.288737,33.755646 Z M137.423923,26.4370973 C146.374205,26.4370973 152.837868,32.4845872 153.000071,40.7113596 L153.003194,41.1111344 C153.003194,49.4097213 146.636762,55.6261189 137.766321,55.7821664 L137.423923,55.7851715 L129.229562,55.7851715 C127.702111,55.7851715 126.505558,54.6456975 126.41902,53.1451295 L126.414005,52.9704288 L126.414005,29.2518399 C126.414005,27.7251708 127.554237,26.528649 129.054859,26.442112 L129.229562,26.4370973 L137.423923,26.4370973 Z M137.423923,26.9610973 L129.229562,26.9610973 C127.987028,26.9610973 127.021445,27.8747049 126.943137,29.0914633 L126.938005,29.2518399 L126.938005,52.9704288 C126.938005,54.2128905 127.851543,55.1777917 129.069079,55.2560431 L129.229562,55.2611715 L137.423923,55.2611715 C146.073945,55.2611715 152.315363,49.3776619 152.476019,41.4260781 L152.479194,41.0288404 C152.479194,33.0410275 146.367032,27.1166448 137.764771,26.964112 L137.423923,26.9610973 Z M137.423923,31.0488188 C143.416382,31.0488188 147.551912,35.0847106 147.688099,40.8181519 L147.691567,41.1934283 C147.691567,46.9674049 143.671787,51.0360207 137.727808,51.1700373 L137.423923,51.17345 L131.478751,51.17345 L131.478751,31.0488188 L137.423923,31.0488188 Z M137.423923,31.5728188 L132.002,31.572 L132.002,50.649 L137.423923,50.64945 C143.145967,50.64945 147.031787,46.9069394 147.16408,41.4805704 L147.167567,41.1111344 C147.167567,35.6086058 143.363202,31.7091484 137.722488,31.5763201 L137.423923,31.5728188 Z M98.4711725,25.2434273 C96.6838065,25.2434273 95.3679935,26.333274 95.3679935,27.9343216 L95.3679935,28.1820183 C95.3679935,29.7896008 96.6934542,30.914467 98.4711725,30.914467 C100.247825,30.914467 101.574351,29.789146 101.574351,28.1820183 L101.574351,27.9343216 C101.574351,26.3337169 100.257477,25.2434273 98.4711725,25.2434273 Z M98.4711725,25.7674273 C99.9876363,25.7674273 101.050351,26.6472891 101.050351,27.9343216 L101.050351,28.1820183 C101.050351,29.4788872 99.9757824,30.390467 98.4711725,30.390467 C96.9655334,30.390467 95.8919935,29.4793961 95.8919935,28.1820183 L95.8919935,27.9343216 C95.8919935,26.6467914 96.9536829,25.7674273 98.4711725,25.7674273 Z" id="Stroke-7" fill="#5B5B5B" fill-rule="nonzero"></path>
        <path d="M70.0720936,78.0186764 C70.0720936,78.1995602 70.2269041,78.3543706 70.4077878,78.3543706 C70.5886716,78.3543706 70.7434821,78.1995602 70.7434821,78.0186764 L70.7434821,74.9338747 L73.1821539,74.9338747 C75.0667673,74.9338747 76.7061283,73.9528654 76.7061283,72.0560301 L76.7061283,72.0299568 C76.7061283,70.287932 75.3380929,69.2678126 73.350001,69.2678126 L70.4077878,69.2678126 C70.2269041,69.2678126 70.0720936,69.4226231 70.0720936,69.6035069 L70.0720936,78.0186764 Z M70.7434821,74.314633 L70.7434821,69.8878692 L73.2986691,69.8878692 C74.9249935,69.8878692 76.0347399,70.6366628 76.0347399,72.0690668 L76.0347399,72.0943254 C76.0347399,73.4371022 74.8989202,74.314633 73.2212639,74.314633 L70.7434821,74.314633 Z M78.2933427,78.0317131 C78.2933427,78.2248188 78.4359313,78.3543706 78.6160003,78.3543706 C78.7968841,78.3543706 78.9256212,78.2248188 78.9256212,78.0317131 L78.9256212,74.4955167 C78.9256212,73.1274813 79.9196671,72.146472 81.2102973,72.146472 C82.5400375,72.146472 83.3010531,73.0370395 83.3010531,74.3920382 L83.3010531,78.0317131 C83.3010531,78.2248188 83.4428268,78.3543706 83.6237106,78.3543706 C83.8045944,78.3543706 83.9333315,78.2248188 83.9333315,78.0317131 L83.9333315,74.275523 C83.9333315,72.7013452 82.9653588,71.5655255 81.3007392,71.5655255 C80.1005509,71.5655255 79.3647939,72.1717306 78.9256212,72.9465976 L78.9256212,69.1521122 C78.9256212,68.9712284 78.7838474,68.8294547 78.6029636,68.8294547 C78.4228946,68.8294547 78.2933427,68.9712284 78.2933427,69.1521122 L78.2933427,78.0317131 Z M87.9478106,78.4578492 C89.1993308,78.4578492 90.012493,77.8377927 90.4647024,77.2055142 L90.4647024,78.0317131 C90.4647024,78.2248188 90.5934395,78.3543706 90.7743233,78.3543706 C90.9543923,78.3543706 91.0839442,78.2248188 91.0839442,78.0317131 L91.0839442,74.1981177 C91.0839442,73.3849555 90.8517285,72.7787505 90.4125558,72.3395777 C89.9350878,71.8621097 89.2254041,71.6168574 88.3348367,71.6168574 C87.4956012,71.6168574 86.8372494,71.8107778 86.1666758,72.107362 C86.1014924,72.1334354 85.985792,72.2369139 85.985792,72.3917244 C85.985792,72.5465348 86.1275658,72.6883086 86.2823762,72.6883086 C86.3214862,72.6883086 86.3728181,72.6752719 86.42415,72.6491986 C86.9668013,72.3917244 87.5730064,72.2108406 88.2957267,72.2108406 C89.6515402,72.2108406 90.4647024,72.8944509 90.4647024,74.2241911 L90.4647024,74.5077386 C89.8316092,74.3398915 89.1993308,74.2241911 88.28269,74.2241911 C86.5797752,74.2241911 85.4048455,74.9982433 85.4048455,76.3662787 L85.4048455,76.392352 C85.4048455,77.7603874 86.721549,78.4578492 87.9478106,78.4578492 L87.9478106,78.4578492 Z M87.9861058,77.863866 C86.979838,77.863866 86.0762339,77.3089928 86.0762339,76.3540568 L86.0762339,76.3279835 C86.0762339,75.4113427 86.8502861,74.792101 88.2443948,74.792101 C89.1862941,74.792101 89.9220511,74.9469114 90.4769243,75.0886852 L90.4769243,75.8374788 C90.4769243,77.0376671 89.3288827,77.863866 87.9861058,77.863866 L87.9861058,77.863866 Z M93.0972947,78.0317131 C93.0972947,78.2248188 93.2390685,78.3543706 93.4199523,78.3543706 C93.6000212,78.3543706 93.7295731,78.2125969 93.7295731,78.0317131 L93.7295731,75.6052632 C93.7295731,73.4884341 94.9810933,72.4430562 96.3752021,72.3143191 C96.5821592,72.3012825 96.7108963,72.146472 96.7108963,71.9655883 C96.7108963,71.7716678 96.5691225,71.6168574 96.3752021,71.6168574 C95.4463394,71.6168574 94.297483,72.3143191 93.7295731,73.5919127 L93.7295731,71.9916616 C93.7295731,71.7977411 93.5877994,71.669004 93.4069156,71.669004 C93.2260318,71.669004 93.0972947,71.8107778 93.0972947,71.9916616 L93.0972947,78.0317131 Z M98.0015265,78.0317131 C98.0015265,78.2248188 98.1433002,78.3543706 98.324184,78.3543706 C98.5050678,78.3543706 98.6338049,78.2248188 98.6338049,78.0317131 L98.6338049,74.5077386 C98.6338049,73.1788132 99.5626675,72.146472 100.737597,72.146472 C101.911712,72.146472 102.660506,72.9848928 102.660506,74.353743 L102.660506,78.0317131 C102.660506,78.2248188 102.80228,78.3543706 102.983163,78.3543706 C103.164047,78.3543706 103.292784,78.2248188 103.292784,78.0317131 L103.292784,74.4694434 C103.292784,72.9979294 104.260757,72.146472 105.371318,72.146472 C106.584543,72.146472 107.319485,72.9726709 107.319485,74.3920382 L107.319485,78.0317131 C107.319485,78.2248188 107.462074,78.3543706 107.642958,78.3543706 C107.823027,78.3543706 107.952579,78.2248188 107.952579,78.0317131 L107.952579,74.314633 C107.952579,72.6622352 106.984606,71.5655255 105.42265,71.5655255 C104.183352,71.5655255 103.473668,72.2499506 103.047532,72.9848928 C102.686579,72.2238772 101.976896,71.5655255 100.828039,71.5655255 C99.6531094,71.5655255 99.059941,72.2108406 98.6338049,72.8944509 L98.6338049,71.9916616 C98.6338049,71.7977411 98.4920311,71.669004 98.3111473,71.669004 C98.1302636,71.669004 98.0015265,71.8107778 98.0015265,71.9916616 L98.0015265,78.0317131 Z M112.017575,78.4578492 C113.26991,78.4578492 114.083072,77.8377927 114.534467,77.2055142 L114.534467,78.0317131 C114.534467,78.2248188 114.663204,78.3543706 114.844087,78.3543706 C115.024971,78.3543706 115.153708,78.2248188 115.153708,78.0317131 L115.153708,74.1981177 C115.153708,73.3849555 114.921493,72.7787505 114.483135,72.3395777 C114.005667,71.8621097 113.295168,71.6168574 112.404601,71.6168574 C111.56618,71.6168574 110.907828,71.8107778 110.23644,72.107362 C110.172071,72.1334354 110.055556,72.2369139 110.055556,72.3917244 C110.055556,72.5465348 110.198145,72.6883086 110.352955,72.6883086 C110.39125,72.6883086 110.443397,72.6752719 110.494729,72.6491986 C111.036565,72.3917244 111.643585,72.2108406 112.366306,72.2108406 C113.721304,72.2108406 114.534467,72.8944509 114.534467,74.2241911 L114.534467,74.5077386 C113.902188,74.3398915 113.26991,74.2241911 112.353269,74.2241911 C110.649539,74.2241911 109.475424,74.9982433 109.475424,76.3662787 L109.475424,76.392352 C109.475424,77.7603874 110.792128,78.4578492 112.017575,78.4578492 L112.017575,78.4578492 Z M112.056685,77.863866 C111.049602,77.863866 110.145998,77.3089928 110.145998,76.3540568 L110.145998,76.3279835 C110.145998,75.4113427 110.920865,74.792101 112.314974,74.792101 C113.256873,74.792101 113.99263,74.9469114 114.547503,75.0886852 L114.547503,75.8374788 C114.547503,77.0376671 113.398647,77.863866 112.056685,77.863866 L112.056685,77.863866 Z M120.070977,78.4578492 C121.19376,78.4578492 121.95559,77.9926031 122.613942,77.3220295 C122.665274,77.2698828 122.691347,77.1924776 122.691347,77.128109 C122.691347,76.9732986 122.536537,76.8184881 122.381726,76.8184881 C122.291284,76.8184881 122.226916,76.86982 122.174769,76.9219667 C121.645969,77.4507666 120.961544,77.863866 120.110087,77.863866 C118.600278,77.863866 117.399275,76.5993091 117.399275,75.0112799 L117.399275,74.9860214 C117.399275,73.4110289 118.561168,72.1595087 120.05794,72.1595087 C120.948508,72.1595087 121.568564,72.58483 122.097364,73.0883713 C122.149511,73.1397032 122.239953,73.1657766 122.317358,73.1657766 C122.497427,73.1657766 122.639201,73.0240028 122.639201,72.843119 C122.639201,72.7526771 122.600905,72.6622352 122.549573,72.6109033 C121.95559,72.0560301 121.206797,71.5655255 120.070977,71.5655255 C118.187178,71.5655255 116.715664,73.1657766 116.715664,75.0112799 L116.715664,75.0373533 C116.715664,76.8828567 118.174142,78.4578492 120.070977,78.4578492 L120.070977,78.4578492 Z M125.014319,80.4060164 C125.957033,80.4060164 126.627606,79.9163265 127.208553,78.5352544 L129.880255,72.1595087 C129.906328,72.0943254 129.919365,72.0560301 129.919365,71.9916616 C129.919365,71.8107778 129.776777,71.669004 129.596708,71.669004 C129.42886,71.669004 129.338419,71.7716678 129.286272,71.9012197 L126.989374,77.605577 L124.355967,71.9264782 C124.291598,71.7847045 124.214193,71.669004 124.021087,71.669004 C123.827167,71.669004 123.685393,71.8107778 123.685393,71.9916616 C123.685393,72.0560301 123.711466,72.1203987 123.736725,72.1847672 L126.679753,78.2639288 L126.640643,78.3543706 C126.214507,79.33538 125.776149,79.8128479 125.053429,79.8128479 C124.653366,79.8128479 124.42115,79.7615161 124.214193,79.6832961 C124.136788,79.6580375 124.072419,79.6319642 124.008051,79.6319642 C123.840204,79.6319642 123.711466,79.7615161 123.711466,79.9285484 C123.711466,80.0711369 123.788057,80.160764 123.891535,80.199874 C124.240266,80.3286111 124.575961,80.4060164 125.014319,80.4060164 L125.014319,80.4060164 Z M130.306391,77.5795037 L130.306391,77.9282345 C130.306391,78.1734869 130.487275,78.3543706 130.732527,78.3543706 C130.97778,78.3543706 131.157849,78.1734869 131.157849,77.9282345 L131.157849,77.5795037 C131.157849,77.3342513 130.97778,77.1541823 130.732527,77.1541823 C130.487275,77.1541823 130.306391,77.3342513 130.306391,77.5795037 L130.306391,77.5795037 Z M139.856566,78.0186764 C139.856566,78.1995602 140.012191,78.3543706 140.19226,78.3543706 C140.373144,78.3543706 140.527954,78.1995602 140.527954,78.0186764 L140.527954,74.7146957 L144.025855,69.7974273 C144.077187,69.7200221 144.129334,69.6295802 144.129334,69.5391383 C144.129334,69.3712912 143.961487,69.2164808 143.79364,69.2164808 C143.651051,69.2164808 143.573646,69.3069227 143.496241,69.4104012 L140.205297,74.1207125 L136.927389,69.4104012 C136.849984,69.293886 136.759542,69.2164808 136.617768,69.2164808 C136.436885,69.2164808 136.269038,69.3712912 136.269038,69.552175 C136.269038,69.6165435 136.295111,69.6939488 136.333406,69.7583173 L139.856566,74.7277324 L139.856566,78.0186764 Z M147.252431,78.4578492 C149.214449,78.4578492 150.646853,76.8567833 150.646853,75.0112799 L150.646853,74.9860214 C150.646853,73.1397032 149.226671,71.5655255 147.278504,71.5655255 C145.316485,71.5655255 143.884082,73.1657766 143.884082,75.0112799 L143.884082,75.0373533 C143.884082,76.8828567 145.303449,78.4578492 147.252431,78.4578492 L147.252431,78.4578492 Z M147.278504,77.863866 C145.754843,77.863866 144.567692,76.5993091 144.567692,75.0112799 L144.567692,74.9860214 C144.567692,73.4371022 145.690475,72.1595087 147.252431,72.1595087 C148.775277,72.1595087 149.962428,73.4240655 149.962428,75.0112799 L149.962428,75.0373533 C149.962428,76.5862725 148.839645,77.863866 147.278504,77.863866 L147.278504,77.863866 Z M157.848798,71.9916616 C157.848798,71.7977411 157.706209,71.669004 157.52614,71.669004 C157.345257,71.669004 157.21652,71.7977411 157.21652,71.9916616 L157.21652,75.5278579 C157.21652,76.8958934 156.222474,77.8769027 154.931843,77.8769027 C153.602103,77.8769027 152.841088,76.9863352 152.841088,75.6313365 L152.841088,71.9916616 C152.841088,71.7977411 152.699314,71.669004 152.51843,71.669004 C152.337546,71.669004 152.208809,71.7977411 152.208809,71.9916616 L152.208809,75.7470369 C152.208809,77.3220295 153.176782,78.4578492 154.841401,78.4578492 C156.04159,78.4578492 156.777347,77.8508293 157.21652,77.0767771 L157.21652,78.0317131 C157.21652,78.2248188 157.358293,78.3543706 157.538362,78.3543706 C157.719246,78.3543706 157.848798,78.2125969 157.848798,78.0317131 L157.848798,71.9916616 Z M159.990886,78.0317131 C159.990886,78.2248188 160.132659,78.3543706 160.313543,78.3543706 C160.494427,78.3543706 160.623164,78.2125969 160.623164,78.0317131 L160.623164,75.6052632 C160.623164,73.4884341 161.875499,72.4430562 163.268793,72.3143191 C163.47575,72.3012825 163.604487,72.146472 163.604487,71.9655883 C163.604487,71.7716678 163.462713,71.6168574 163.268793,71.6168574 C162.33993,71.6168574 161.191074,72.3143191 160.623164,73.5919127 L160.623164,71.9916616 C160.623164,71.7977411 160.48139,71.669004 160.300506,71.669004 C160.119623,71.669004 159.990886,71.8107778 159.990886,71.9916616 L159.990886,78.0317131 Z M171.142126,78.1091183 C171.206495,78.2900021 171.309973,78.4057025 171.490042,78.4057025 L171.516115,78.4057025 C171.696999,78.4057025 171.813514,78.2769654 171.864846,78.1091183 L174.420033,70.5201476 L176.976035,78.1091183 C177.027367,78.2769654 177.143067,78.4057025 177.323951,78.4057025 L177.350025,78.4057025 C177.530908,78.4057025 177.633572,78.2769654 177.698755,78.1091183 L180.718374,69.7330588 C180.744447,69.6686902 180.77052,69.6035069 180.77052,69.552175 C180.77052,69.3843279 180.602673,69.2164808 180.434826,69.2164808 C180.280016,69.2164808 180.176537,69.3199593 180.112169,69.4878064 L177.350025,77.3089928 L174.781801,69.4747698 C174.729654,69.332996 174.62699,69.2164808 174.459143,69.2164808 L174.43307,69.2164808 C174.252186,69.2164808 174.161744,69.332996 174.110412,69.4747698 L171.542189,77.3089928 L168.793081,69.5261016 C168.740935,69.3712912 168.612197,69.2164808 168.431314,69.2164808 C168.25043,69.2164808 168.083398,69.3843279 168.083398,69.5652116 C168.083398,69.6165435 168.096434,69.6686902 168.121693,69.7330588 L171.142126,78.1091183 Z M183.57096,78.4578492 C184.82248,78.4578492 185.635642,77.8377927 186.087852,77.2055142 L186.087852,78.0317131 C186.087852,78.2248188 186.216589,78.3543706 186.397473,78.3543706 C186.577542,78.3543706 186.707093,78.2248188 186.707093,78.0317131 L186.707093,74.1981177 C186.707093,73.3849555 186.474878,72.7787505 186.035705,72.3395777 C185.558237,71.8621097 184.848553,71.6168574 183.957986,71.6168574 C183.11875,71.6168574 182.461213,71.8107778 181.789825,72.107362 C181.725456,72.1334354 181.608941,72.2369139 181.608941,72.3917244 C181.608941,72.5465348 181.750715,72.6883086 181.90634,72.6883086 C181.944635,72.6883086 181.995967,72.6752719 182.048114,72.6491986 C182.589951,72.3917244 183.196156,72.2108406 183.918876,72.2108406 C185.274689,72.2108406 186.087852,72.8944509 186.087852,74.2241911 L186.087852,74.5077386 C185.455573,74.3398915 184.82248,74.2241911 183.906654,74.2241911 C182.202924,74.2241911 181.027995,74.9982433 181.027995,76.3662787 L181.027995,76.392352 C181.027995,77.7603874 182.344698,78.4578492 183.57096,78.4578492 L183.57096,78.4578492 Z M183.609255,77.863866 C182.602987,77.863866 181.699383,77.3089928 181.699383,76.3540568 L181.699383,76.3279835 C181.699383,75.4113427 182.473435,74.792101 183.867544,74.792101 C184.810258,74.792101 185.5452,74.9469114 186.100074,75.0886852 L186.100074,75.8374788 C186.100074,77.0376671 184.952032,77.863866 183.609255,77.863866 L183.609255,77.863866 Z M189.263095,80.4060164 C190.204995,80.4060164 190.875568,79.9163265 191.45733,78.5352544 L194.127402,72.1595087 C194.153476,72.0943254 194.167327,72.0560301 194.167327,71.9916616 C194.167327,71.8107778 194.023924,71.669004 193.843855,71.669004 C193.676822,71.669004 193.585566,71.7716678 193.534234,71.9012197 L191.236521,77.605577 L188.603929,71.9264782 C188.540375,71.7847045 188.46297,71.669004 188.269049,71.669004 C188.075129,71.669004 187.933355,71.8107778 187.933355,71.9916616 C187.933355,72.0560301 187.958614,72.1203987 187.984687,72.1847672 L190.927715,78.2639288 L190.88942,78.3543706 C190.463284,79.33538 190.024926,79.8128479 189.300576,79.8128479 C188.901328,79.8128479 188.669927,79.7615161 188.46297,79.6832961 C188.385565,79.6580375 188.320381,79.6319642 188.255198,79.6319642 C188.088166,79.6319642 187.958614,79.7615161 187.958614,79.9285484 C187.958614,80.0711369 188.036834,80.160764 188.139497,80.199874 C188.489043,80.3286111 188.824737,80.4060164 189.263095,80.4060164 L189.263095,80.4060164 Z M194.553538,77.5795037 L194.553538,77.9282345 C194.553538,78.1734869 194.734422,78.3543706 194.980489,78.3543706 C195.224112,78.3543706 195.40744,78.1734869 195.40744,77.9282345 L195.40744,77.5795037 C195.40744,77.3342513 195.224112,77.1541823 194.980489,77.1541823 C194.734422,77.1541823 194.553538,77.3342513 194.553538,77.5795037 L194.553538,77.5795037 Z" id="Fill-9" fill="#5B5B5B"></path>
        <path d="M226.683054,63.7404281 L228.826771,63.7404281 L228.826771,51.9292064 C230.664127,54.728831 233.550934,57.2660926 238.012734,57.2660926 C243.393619,57.2660926 248.861686,52.8482915 248.861686,45.5860523 L248.861686,45.4988696 C248.861686,38.2374452 243.393619,33.9068269 238.012734,33.9068269 C233.594933,33.9068269 230.751309,36.4872725 228.826771,39.4188933 L228.826771,34.4315528 L226.683054,34.4315528 L226.683054,63.7404281 Z M237.794369,55.2103729 C233.157389,55.2103729 228.69559,51.3604817 228.69559,45.6300511 L228.69559,45.5428684 C228.69559,39.8556217 233.157389,35.9625466 237.794369,35.9625466 C242.474533,35.9625466 246.542789,39.7244402 246.542789,45.5860523 L246.542789,45.6740499 C246.542789,51.6668434 242.649714,55.2103729 237.794369,55.2103729 L237.794369,55.2103729 Z M262.771812,57.2660926 C267.058431,57.2660926 269.726874,55.5167346 272.001773,53.0666557 L270.514778,51.754841 C268.677423,53.7225631 266.315341,55.2543717 262.858994,55.2543717 C258.485192,55.2543717 254.504119,52.0172039 254.110575,46.4611387 L272.614496,46.4611387 C272.65768,46.111593 272.65768,45.9804116 272.65768,45.5860523 C272.65768,38.9813501 268.677423,33.9068269 262.421451,33.9068269 C256.384659,33.9068269 251.835676,39.0685328 251.835676,45.5428684 L251.835676,45.6300511 C251.835676,52.5859286 256.9102,57.2660926 262.771812,57.2660926 L262.771812,57.2660926 Z M254.110575,44.5366005 C254.504119,39.5932587 257.916467,35.8753638 262.334268,35.8753638 C267.45279,35.8753638 270.033236,40.0308019 270.339598,44.5366005 L254.110575,44.5366005 Z M284.16254,57.1349111 C285.562353,57.1349111 286.655803,56.8725482 287.793253,56.3478223 L287.793253,54.3352865 C286.524622,54.9040112 285.606351,55.1223754 284.512901,55.1223754 C281.931641,55.1223754 280.051101,53.9857409 280.051101,50.7917571 L280.051101,36.4000897 L287.88125,36.4000897 L287.88125,34.4315528 L280.051101,34.4315528 L280.051101,27.3013099 L277.907384,27.3013099 L277.907384,34.4315528 L274.670216,34.4315528 L274.670216,36.4000897 L277.907384,36.4000897 L277.907384,51.0109361 C277.907384,55.2543717 280.707008,57.1349111 284.16254,57.1349111 L284.16254,57.1349111 Z M299.254114,57.1789099 C303.541548,57.1789099 306.953081,54.6416483 306.953081,50.6605756 L306.953081,50.5733929 C306.953081,46.636319 303.191188,45.3236894 299.604474,44.3182363 C296.411305,43.3991512 293.392502,42.4808808 293.392502,39.9868032 L293.392502,39.8996205 C293.392502,37.6687206 295.405037,36.0065453 298.467025,36.0065453 C300.829106,36.0065453 303.279185,36.8816317 305.334905,38.2374452 L306.472354,36.4440885 C304.241454,34.9562787 301.222651,33.9940096 298.554208,33.9940096 C294.223589,33.9940096 291.205601,36.57527 291.205601,40.1619834 L291.205601,40.2499809 C291.205601,44.2302388 295.229857,45.3236894 298.860569,46.373956 C301.966556,47.2490424 304.76618,48.2113115 304.76618,50.8357558 L304.76618,50.9229385 C304.76618,53.5041989 302.404099,55.1663742 299.385295,55.1663742 C296.542487,55.1663742 293.830045,54.1169223 291.379966,52.2355681 L290.11215,53.9417421 C292.474231,55.8662803 296.016946,57.1789099 299.254114,57.1789099 L299.254114,57.1789099 Z" id="Fill-11" fill="#C1C1C1"></path>
    </g>
</svg>