<?xml version="1.0" encoding="UTF-8"?>
<svg width="141px" height="48px" viewBox="0 0 141 48" version="1.1" xmlns="http://www.w3.org/2000/svg" xmlns:xlink="http://www.w3.org/1999/xlink">
    <title>logo</title>
    <g id="logo" stroke="none" stroke-width="1" fill="none" fill-rule="evenodd">
        <path d="M18.0281812,0.117612308 C8.05991219,0.117612308 0.000290620087,8.30936615 0.000290620087,18.5134277 C0.000290620087,21.1718892 0.707223983,23.9743508 1.48463272,25.9142892 C6.9286735,37.7710277 17.6038759,46.9685662 18.0281812,46.9685662 C18.4524865,46.9685662 29.1276889,37.7710277 34.5717297,25.7710277 C35.3491384,23.8303508 36.0560718,21.0278892 36.0560718,18.3694277 C36.0560718,8.30936615 27.9964502,0.117612308 18.0281812,0.117612308" id="Fill-1" fill="#EC1D24"></path>
        <path d="M25.7387887,11.1956395 C23.9385457,9.39632531 21.0090526,9.39632531 19.2088095,11.1956395 L9.97300168,20.4310508 C9.10020072,21.3026732 8.62008734,22.4619238 8.62008734,23.6947198 C8.62008734,24.9275157 9.10092927,26.0867663 9.97227314,26.9583887 C10.8727589,27.8576817 12.055193,28.3076923 13.237627,28.3076923 C14.420061,28.3076923 15.6032236,27.8576817 16.5029808,26.9583887 L25.7387887,17.7229774 C26.6108611,16.851355 27.0917031,15.6921044 27.0917031,14.4593084 C27.0917031,13.2265125 26.6108611,12.0672619 25.7387887,11.1956395 M25.051039,17.0355826 L20.4123715,21.6740412 L15.2571631,16.5214928 L19.8958307,11.8830343 C20.6061653,11.1730661 21.5401644,10.817718 22.4734349,10.817718 C23.4067053,10.817718 24.3407044,11.1730661 25.051039,11.8830343 C25.7395173,12.5711572 26.119091,13.4857419 26.119091,14.4593084 C26.119091,15.4321468 25.7395173,16.3474596 25.051039,17.0355826" id="Fill-4" fill="#FEFEFE"></path>
        <path d="M45.5633188,34.2576306 C45.5633188,35.1411859 46.2536886,35.8427022 47.1486933,35.8427022 C48.0182097,35.8427022 48.7085795,35.1411859 48.7085795,34.2576306 L48.7085795,29.866494 L52.2623818,29.866494 C56.2006938,29.866494 59.4224195,27.7360454 59.4224195,23.6564471 L59.4224195,23.6046474 C59.4224195,19.9409269 56.8138704,17.5248398 52.620675,17.5248398 L47.1486933,17.5248398 C46.2536886,17.5248398 45.5633188,18.226356 45.5633188,19.1358112 L45.5633188,34.2576306 Z M48.7085795,26.9827294 L48.7085795,20.4345043 L52.3650634,20.4345043 C54.7172727,20.4345043 56.2261822,21.5518983 56.2261822,23.682347 L56.2261822,23.7348867 C56.2261822,25.6314966 54.742761,26.9827294 52.3650634,26.9827294 L48.7085795,26.9827294 Z M61.212429,18.4601948 C61.212429,19.3955498 61.9792638,20.0186265 62.9762218,20.0186265 C63.9739081,20.0186265 64.7407429,19.3955498 64.7407429,18.4601948 L64.7407429,18.3040556 C64.7407429,17.3687006 63.9739081,16.7715238 62.9762218,16.7715238 C61.9792638,16.7715238 61.212429,17.3687006 61.212429,18.3040556 L61.212429,18.4601948 Z M61.4425522,34.2835305 C61.4425522,35.1670858 62.1321938,35.8427022 62.9762218,35.8427022 C63.8457382,35.8427022 64.536108,35.1670858 64.536108,34.2835305 L64.536108,23.4226083 C64.536108,22.539053 63.8457382,21.8375368 62.9762218,21.8375368 C62.1067055,21.8375368 61.4425522,22.539053 61.4425522,23.4226083 L61.4425522,34.2835305 Z M67.7323454,34.2835305 C67.7323454,35.1670858 68.4227152,35.8427022 69.2667432,35.8427022 C70.1355314,35.8427022 70.8259011,35.1670858 70.8259011,34.2835305 L70.8259011,18.1745563 C70.8259011,17.3169009 70.1355314,16.6153846 69.2667432,16.6153846 C68.3972268,16.6153846 67.7323454,17.3169009 67.7323454,18.1745563 L67.7323454,34.2835305 Z M74.0221385,34.2835305 C74.0221385,35.1670858 74.7125083,35.8427022 75.5565363,35.8427022 C76.4260527,35.8427022 77.1164225,35.1670858 77.1164225,34.2835305 L77.1164225,18.1745563 C77.1164225,17.3169009 76.4260527,16.6153846 75.5565363,16.6153846 C74.68702,16.6153846 74.0221385,17.3169009 74.0221385,18.1745563 L74.0221385,34.2835305 Z M80.4918065,34.1014914 C80.4918065,35.0109466 81.1821763,35.7124628 82.0764528,35.7124628 L87.1653811,35.7124628 C92.7902928,35.7124628 96.6769,31.737204 96.6769,26.6186513 L96.6769,26.5668516 C96.6769,21.4482989 92.7902928,17.5248398 87.1653811,17.5248398 L82.0764528,17.5248398 C81.1821763,17.5248398 80.4918065,18.226356 80.4918065,19.1358112 L80.4918065,34.1014914 Z M83.6363389,32.8027984 L83.6363389,20.4345043 L87.1653811,20.4345043 C90.9238184,20.4345043 93.3787093,23.0592703 93.3787093,26.6186513 L93.3787093,26.670451 C93.3787093,30.2305721 90.9238184,32.8027984 87.1653811,32.8027984 L83.6363389,32.8027984 Z M98.5950793,34.2835305 C98.5950793,35.1670858 99.2854491,35.8427022 100.128749,35.8427022 C100.998265,35.8427022 101.688635,35.1411859 101.688635,34.2835305 L101.688635,30.2305721 C101.688635,26.9827294 103.197545,25.2674185 105.396824,24.8774406 C106.087194,24.7479413 106.623905,24.2025642 106.623905,23.3708086 C106.623905,22.4613535 106.060977,21.8116369 105.089507,21.8116369 C103.734256,21.8116369 102.405221,23.11107 101.688635,24.8256409 L101.688635,23.4226083 C101.688635,22.539053 100.998265,21.8375368 100.128749,21.8375368 C99.2599608,21.8375368 98.5950793,22.539053 98.5950793,23.4226083 L98.5950793,34.2835305 Z M114.346143,36.0247412 C118.51385,36.0247412 121.581917,32.7768985 121.581917,28.8793393 L121.581917,28.8267995 C121.581917,24.9040804 118.539338,21.7080375 114.39712,21.7080375 C110.254901,21.7080375 107.186833,24.9558802 107.186833,28.8793393 L107.186833,28.931139 C107.186833,32.8286982 110.229412,36.0247412 114.346143,36.0247412 L114.346143,36.0247412 Z M114.39712,33.2704759 C111.993934,33.2704759 110.280389,31.2695265 110.280389,28.8793393 L110.280389,28.8267995 C110.280389,26.4366123 111.865764,24.4623028 114.346143,24.4623028 C116.775545,24.4623028 118.488362,26.4625121 118.488362,28.8793393 L118.488362,28.931139 C118.488362,31.2954264 116.902987,33.2704759 114.39712,33.2704759 L114.39712,33.2704759 Z M123.961072,38.4408283 C123.961072,39.3243836 124.650713,40 125.494741,40 C126.364258,40 127.054627,39.3243836 127.054627,38.4408283 L127.054627,33.5820142 C128.000609,34.8548074 129.406108,35.9988413 131.657093,35.9988413 C134.852602,35.9988413 137.921397,33.425875 137.921397,28.8793393 L137.921397,28.8267995 C137.921397,24.2543639 134.827113,21.7080375 131.657093,21.7080375 C129.457813,21.7080375 128.050857,22.8513314 127.054627,24.2802638 L127.054627,23.4226083 C127.054627,22.539053 126.364258,21.8375368 125.494741,21.8375368 C124.625225,21.8375368 123.961072,22.539053 123.961072,23.4226083 L123.961072,38.4408283 Z M130.915746,33.2704759 C128.81842,33.2704759 126.978162,31.5033653 126.978162,28.8793393 L126.978162,28.8267995 C126.978162,26.2027735 128.81842,24.4364029 130.915746,24.4364029 C133.012344,24.4364029 134.776137,26.1768737 134.776137,28.8267995 L134.776137,28.8793393 C134.776137,31.5810649 133.037832,33.2704759 130.915746,33.2704759 L130.915746,33.2704759 Z" id="Fill-6" fill="#4E555A"></path>
        <path d="M45.5633188,34.2576306 C45.5633188,35.1411859 46.2536886,35.8427022 47.1486933,35.8427022 C48.0182097,35.8427022 48.7085795,35.1411859 48.7085795,34.2576306 L48.7085795,29.866494 L52.2623818,29.866494 C56.2006938,29.866494 59.4224195,27.7360454 59.4224195,23.6564471 L59.4224195,23.6046474 C59.4224195,19.9409269 56.8138704,17.5248398 52.620675,17.5248398 L47.1486933,17.5248398 C46.2536886,17.5248398 45.5633188,18.226356 45.5633188,19.1358112 L45.5633188,34.2576306 Z M48.7085795,26.9827294 L48.7085795,20.4345043 L52.3650634,20.4345043 C54.7172727,20.4345043 56.2261822,21.5518983 56.2261822,23.682347 L56.2261822,23.7348867 C56.2261822,25.6314966 54.742761,26.9827294 52.3650634,26.9827294 L48.7085795,26.9827294 Z M61.212429,18.4601948 C61.212429,19.3955498 61.9792638,20.0186265 62.9762218,20.0186265 C63.9739081,20.0186265 64.7407429,19.3955498 64.7407429,18.4601948 L64.7407429,18.3040556 C64.7407429,17.3687006 63.9739081,16.7715238 62.9762218,16.7715238 C61.9792638,16.7715238 61.212429,17.3687006 61.212429,18.3040556 L61.212429,18.4601948 Z M61.4425522,34.2835305 C61.4425522,35.1670858 62.1321938,35.8427022 62.9762218,35.8427022 C63.8457382,35.8427022 64.536108,35.1670858 64.536108,34.2835305 L64.536108,23.4226083 C64.536108,22.539053 63.8457382,21.8375368 62.9762218,21.8375368 C62.1067055,21.8375368 61.4425522,22.539053 61.4425522,23.4226083 L61.4425522,34.2835305 Z M67.7323454,34.2835305 C67.7323454,35.1670858 68.4227152,35.8427022 69.2667432,35.8427022 C70.1355314,35.8427022 70.8259011,35.1670858 70.8259011,34.2835305 L70.8259011,18.1745563 C70.8259011,17.3169009 70.1355314,16.6153846 69.2667432,16.6153846 C68.3972268,16.6153846 67.7323454,17.3169009 67.7323454,18.1745563 L67.7323454,34.2835305 Z M74.0221385,34.2835305 C74.0221385,35.1670858 74.7125083,35.8427022 75.5565363,35.8427022 C76.4260527,35.8427022 77.1164225,35.1670858 77.1164225,34.2835305 L77.1164225,18.1745563 C77.1164225,17.3169009 76.4260527,16.6153846 75.5565363,16.6153846 C74.68702,16.6153846 74.0221385,17.3169009 74.0221385,18.1745563 L74.0221385,34.2835305 Z M80.4918065,34.1014914 C80.4918065,35.0109466 81.1821763,35.7124628 82.0764528,35.7124628 L87.1653811,35.7124628 C92.7902928,35.7124628 96.6769,31.737204 96.6769,26.6186513 L96.6769,26.5668516 C96.6769,21.4482989 92.7902928,17.5248398 87.1653811,17.5248398 L82.0764528,17.5248398 C81.1821763,17.5248398 80.4918065,18.226356 80.4918065,19.1358112 L80.4918065,34.1014914 Z M83.6363389,32.8027984 L83.6363389,20.4345043 L87.1653811,20.4345043 C90.9238184,20.4345043 93.3787093,23.0592703 93.3787093,26.6186513 L93.3787093,26.670451 C93.3787093,30.2305721 90.9238184,32.8027984 87.1653811,32.8027984 L83.6363389,32.8027984 Z M98.5950793,34.2835305 C98.5950793,35.1670858 99.2854491,35.8427022 100.128749,35.8427022 C100.998265,35.8427022 101.688635,35.1411859 101.688635,34.2835305 L101.688635,30.2305721 C101.688635,26.9827294 103.197545,25.2674185 105.396824,24.8774406 C106.087194,24.7479413 106.623905,24.2025642 106.623905,23.3708086 C106.623905,22.4613535 106.060977,21.8116369 105.089507,21.8116369 C103.734256,21.8116369 102.405221,23.11107 101.688635,24.8256409 L101.688635,23.4226083 C101.688635,22.539053 100.998265,21.8375368 100.128749,21.8375368 C99.2599608,21.8375368 98.5950793,22.539053 98.5950793,23.4226083 L98.5950793,34.2835305 Z M114.346143,36.0247412 C118.51385,36.0247412 121.581917,32.7768985 121.581917,28.8793393 L121.581917,28.8267995 C121.581917,24.9040804 118.539338,21.7080375 114.39712,21.7080375 C110.254901,21.7080375 107.186833,24.9558802 107.186833,28.8793393 L107.186833,28.931139 C107.186833,32.8286982 110.229412,36.0247412 114.346143,36.0247412 Z M114.39712,33.2704759 C111.993934,33.2704759 110.280389,31.2695265 110.280389,28.8793393 L110.280389,28.8267995 C110.280389,26.4366123 111.865764,24.4623028 114.346143,24.4623028 C116.775545,24.4623028 118.488362,26.4625121 118.488362,28.8793393 L118.488362,28.931139 C118.488362,31.2954264 116.902987,33.2704759 114.39712,33.2704759 Z M123.961072,38.4408283 C123.961072,39.3243836 124.650713,40 125.494741,40 C126.364258,40 127.054627,39.3243836 127.054627,38.4408283 L127.054627,33.5820142 C128.000609,34.8548074 129.406108,35.9988413 131.657093,35.9988413 C134.852602,35.9988413 137.921397,33.425875 137.921397,28.8793393 L137.921397,28.8267995 C137.921397,24.2543639 134.827113,21.7080375 131.657093,21.7080375 C129.457813,21.7080375 128.050857,22.8513314 127.054627,24.2802638 L127.054627,23.4226083 C127.054627,22.539053 126.364258,21.8375368 125.494741,21.8375368 C124.625225,21.8375368 123.961072,22.539053 123.961072,23.4226083 L123.961072,38.4408283 Z M130.915746,33.2704759 C128.81842,33.2704759 126.978162,31.5033653 126.978162,28.8793393 L126.978162,28.8267995 C126.978162,26.2027735 128.81842,24.4364029 130.915746,24.4364029 C133.012344,24.4364029 134.776137,26.1768737 134.776137,28.8267995 L134.776137,28.8793393 C134.776137,31.5810649 133.037832,33.2704759 130.915746,33.2704759 Z" id="Stroke-8" stroke="#4E555A" stroke-width="0.609"></path>
        <path d="M45.5633188,46.4769979 C45.5633188,46.5921955 45.6598983,46.6909363 45.7725745,46.6909363 C45.8852506,46.6909363 45.9818301,46.5921955 45.9818301,46.4769979 L45.9818301,44.5096621 L47.5036896,44.5096621 C48.6794724,44.5096621 49.7023376,43.8835557 49.7023376,42.6739808 L49.7023376,42.657524 C49.7023376,41.5459419 48.8484866,40.8951502 47.6083175,40.8951502 L45.7725745,40.8951502 C45.6598983,40.8951502 45.5633188,40.993891 45.5633188,41.1090886 L45.5633188,46.4769979 Z M45.9818301,44.1139509 L45.9818301,41.2901135 L47.5761243,41.2901135 C48.5909412,41.2901135 49.2838262,41.7681087 49.2838262,42.6822092 L49.2838262,42.698666 C49.2838262,43.5544196 48.5748446,44.1139509 47.5278345,44.1139509 L45.9818301,44.1139509 Z M50.6922779,46.4852263 C50.6922779,46.6086523 50.7815409,46.6909363 50.894217,46.6909363 C51.0068931,46.6909363 51.0873761,46.6086523 51.0873761,46.4852263 L51.0873761,44.2298965 C51.0873761,43.356938 51.7070948,42.7315796 52.512656,42.7315796 C53.3416305,42.7315796 53.8172116,43.2993392 53.8172116,44.1640693 L53.8172116,46.4852263 C53.8172116,46.6086523 53.9057428,46.6909363 54.0184189,46.6909363 C54.1310951,46.6909363 54.211578,46.6086523 54.211578,46.4852263 L54.211578,44.0892657 C54.211578,43.0854008 53.6079559,42.3605535 52.5689941,42.3605535 C51.819771,42.3605535 51.3610181,42.7480364 51.0873761,43.2417404 L51.0873761,40.8210946 C51.0873761,40.705897 50.9988448,40.6153846 50.8861687,40.6153846 C50.7734926,40.6153846 50.6922779,40.705897 50.6922779,40.8210946 L50.6922779,46.4852263 Z M56.7160612,46.7567635 C57.4967459,46.7567635 58.0045202,46.3618003 58.2862105,45.9586087 L58.2862105,46.4852263 C58.2862105,46.6086523 58.3666934,46.6909363 58.4793696,46.6909363 C58.5920457,46.6909363 58.6725287,46.6086523 58.6725287,46.4852263 L58.6725287,44.0398953 C58.6725287,43.521506 58.5276594,43.1347712 58.2540173,42.8550056 C57.9554987,42.5498068 57.5128425,42.3934671 56.9575101,42.3934671 C56.4336392,42.3934671 56.0231762,42.5168932 55.6046648,42.7068944 C55.5644233,42.7233512 55.4919887,42.7884304 55.4919887,42.8879192 C55.4919887,42.98666 55.5805199,43.0771724 55.6770995,43.0771724 C55.7012443,43.0771724 55.7334375,43.068944 55.7656307,43.0524872 C56.1036591,42.8879192 56.481929,42.7719736 56.9333652,42.7719736 C57.7784362,42.7719736 58.2862105,43.2088268 58.2862105,44.0563521 L58.2862105,44.2381249 C57.8911124,44.1304077 57.4967459,44.0563521 56.9253169,44.0563521 C55.8622103,44.0563521 55.1290837,44.5508041 55.1290837,45.4230146 L55.1290837,45.4394714 C55.1290837,46.3124299 55.9507415,46.7567635 56.7160612,46.7567635 L56.7160612,46.7567635 Z M56.7402061,46.3782571 C56.1117074,46.3782571 55.5483267,46.0244359 55.5483267,45.4147862 L55.5483267,45.3983294 C55.5483267,44.814113 56.0312245,44.4191497 56.901172,44.4191497 C57.4886976,44.4191497 57.9474504,44.5178905 58.2942588,44.6084029 L58.2942588,45.0856502 C58.2942588,45.8516394 57.5772288,46.3782571 56.7402061,46.3782571 L56.7402061,46.3782571 Z M59.9287944,46.4852263 C59.9287944,46.6086523 60.0173257,46.6909363 60.1300018,46.6909363 C60.2426779,46.6909363 60.3231609,46.6004239 60.3231609,46.4852263 L60.3231609,44.937539 C60.3231609,43.5873333 61.1038456,42.9208328 61.9737931,42.8385488 C62.1025658,42.8303204 62.1830488,42.7315796 62.1830488,42.615634 C62.1830488,42.492208 62.0945176,42.3934671 61.9737931,42.3934671 C61.3943159,42.3934671 60.6772859,42.8385488 60.3231609,43.6531605 L60.3231609,42.6320908 C60.3231609,42.5086648 60.2346296,42.4263808 60.1219535,42.4263808 C60.0092774,42.4263808 59.9287944,42.5168932 59.9287944,42.6320908 L59.9287944,46.4852263 Z M62.98861,46.4852263 C62.98861,46.6086523 63.0771413,46.6909363 63.1898174,46.6909363 C63.3024935,46.6909363 63.3829765,46.6086523 63.3829765,46.4852263 L63.3829765,44.2381249 C63.3829765,43.3898516 63.9624538,42.7315796 64.6955803,42.7315796 C65.4279752,42.7315796 65.895508,43.2664256 65.895508,44.1393841 L65.895508,46.4852263 C65.895508,46.6086523 65.9840392,46.6909363 66.0967154,46.6909363 C66.2093915,46.6909363 66.2898745,46.6086523 66.2898745,46.4852263 L66.2898745,44.2134397 C66.2898745,43.274654 66.8934966,42.7315796 67.5863817,42.7315796 C68.3429214,42.7315796 68.8024059,43.2581972 68.8024059,44.1640693 L68.8024059,46.4852263 C68.8024059,46.6086523 68.8909372,46.6909363 69.0036133,46.6909363 C69.1162895,46.6909363 69.1967724,46.6086523 69.1967724,46.4852263 L69.1967724,44.1139509 C69.1967724,43.0607156 68.5931503,42.3605535 67.6185749,42.3605535 C66.8452068,42.3605535 66.4025506,42.7974068 66.1369568,43.2664256 C65.9116046,42.780202 65.4682167,42.3605535 64.7519184,42.3605535 C64.0187918,42.3605535 63.6485702,42.7719736 63.3829765,43.2088268 L63.3829765,42.6320908 C63.3829765,42.5086648 63.2944452,42.4263808 63.1817691,42.4263808 C63.069093,42.4263808 62.98861,42.5168932 62.98861,42.6320908 L62.98861,46.4852263 Z M71.7334488,46.7567635 C72.5141335,46.7567635 73.0219077,46.3618003 73.3035981,45.9586087 L73.3035981,46.4852263 C73.3035981,46.6086523 73.384081,46.6909363 73.4967572,46.6909363 C73.6094333,46.6909363 73.6899162,46.6086523 73.6899162,46.4852263 L73.6899162,44.0398953 C73.6899162,43.521506 73.5450469,43.1347712 73.2714049,42.8550056 C72.9728863,42.5498068 72.53023,42.3934671 71.9748977,42.3934671 C71.4510268,42.3934671 71.0405637,42.5168932 70.6220524,42.7068944 C70.5818109,42.7233512 70.5093762,42.7884304 70.5093762,42.8879192 C70.5093762,42.98666 70.5979075,43.0771724 70.694487,43.0771724 C70.7186319,43.0771724 70.7508251,43.068944 70.7830183,43.0524872 C71.1210467,42.8879192 71.4993166,42.7719736 71.9507528,42.7719736 C72.7958238,42.7719736 73.3035981,43.2088268 73.3035981,44.0563521 L73.3035981,44.2381249 C72.9084999,44.1304077 72.5141335,44.0563521 71.9427045,44.0563521 C70.8795978,44.0563521 70.1464713,44.5508041 70.1464713,45.4230146 L70.1464713,45.4394714 C70.1464713,46.3124299 70.9681291,46.7567635 71.7334488,46.7567635 L71.7334488,46.7567635 Z M71.7575937,46.3782571 C71.129095,46.3782571 70.5657143,46.0244359 70.5657143,45.4147862 L70.5657143,45.3983294 C70.5657143,44.814113 71.048612,44.4191497 71.9185596,44.4191497 C72.5060852,44.4191497 72.964838,44.5178905 73.3116464,44.6084029 L73.3116464,45.0856502 C73.3116464,45.8516394 72.5946164,46.3782571 71.7575937,46.3782571 L71.7575937,46.3782571 Z M76.7577801,46.7567635 C77.4579818,46.7567635 77.9335629,46.4605411 78.344026,46.0326643 C78.3762192,45.9997507 78.3923158,45.9503803 78.3923158,45.9092382 C78.3923158,45.8104974 78.2957362,45.7117566 78.1991567,45.7117566 C78.1428186,45.7117566 78.1025771,45.7446702 78.0703839,45.7775838 C77.7404038,46.1149483 77.3131125,46.3782571 76.781925,46.3782571 C75.8395428,46.3782571 75.0910513,45.5711258 75.0910513,44.5590325 L75.0910513,44.5425757 C75.0910513,43.5379628 75.8153979,42.739808 76.7497318,42.739808 C77.3050642,42.739808 77.6921141,43.0113452 78.0220942,43.3322528 C78.0542874,43.3651664 78.1106254,43.3816232 78.1589152,43.3816232 C78.2715913,43.3816232 78.3601226,43.2911108 78.3601226,43.1759132 C78.3601226,43.1183144 78.3359777,43.0607156 78.3037845,43.027802 C77.9335629,42.6739808 77.4660301,42.3605535 76.7577801,42.3605535 C75.5819973,42.3605535 74.66376,43.3816232 74.66376,44.5590325 L74.66376,44.5754893 C74.66376,45.7528986 75.573949,46.7567635 76.7577801,46.7567635 L76.7577801,46.7567635 Z M79.8417406,48 C80.4292662,48 80.8485092,47.6873208 81.2106825,46.8061339 L82.8774113,42.739808 C82.8935079,42.698666 82.9015562,42.6739808 82.9015562,42.6320908 C82.9015562,42.5168932 82.8130249,42.4263808 82.7003488,42.4263808 C82.595721,42.4263808 82.5393829,42.492208 82.5071897,42.574492 L81.0738615,46.2136891 L79.4312775,42.5909488 C79.3910361,42.5004364 79.3427463,42.4263808 79.2220218,42.4263808 C79.1012974,42.4263808 79.0127662,42.5168932 79.0127662,42.6320908 C79.0127662,42.6739808 79.0288628,42.7151228 79.0449594,42.7562648 L80.8807024,46.6333375 L80.8565575,46.6909363 C80.5909637,47.3170428 80.3173217,47.6214936 79.8658855,47.6214936 C79.6163883,47.6214936 79.471519,47.58858 79.3427463,47.5392096 C79.2944565,47.5227528 79.254215,47.506296 79.2139736,47.506296 C79.1093457,47.506296 79.0288628,47.58858 79.0288628,47.6955492 C79.0288628,47.7860616 79.0771525,47.8436604 79.1415389,47.8683456 C79.3588429,47.9506296 79.5680986,48 79.8417406,48 L79.8417406,48 Z M83.143005,46.1972323 L83.143005,46.4193991 C83.143005,46.5757387 83.2564128,46.6909363 83.4093305,46.6909363 C83.5622481,46.6909363 83.6749242,46.5757387 83.6749242,46.4193991 L83.6749242,46.1972323 C83.6749242,46.0408927 83.5622481,45.9256951 83.4093305,45.9256951 C83.2564128,45.9256951 83.143005,46.0408927 83.143005,46.1972323 L83.143005,46.1972323 Z M89.1016703,46.4769979 C89.1016703,46.5921955 89.1989815,46.6909363 89.310926,46.6909363 C89.4243338,46.6909363 89.5209133,46.5921955 89.5209133,46.4769979 L89.5209133,44.3697793 L91.702733,41.2332627 C91.7349262,41.1838923 91.7671194,41.1255454 91.7671194,41.0679466 C91.7671194,40.9609774 91.6624916,40.8622366 91.5578637,40.8622366 C91.4693325,40.8622366 91.4210427,40.9198354 91.3727529,40.9856626 L89.3189743,43.9905249 L87.2739756,40.9856626 C87.2256858,40.911607 87.1693477,40.8622366 87.0808165,40.8622366 C86.9681404,40.8622366 86.8635125,40.9609774 86.8635125,41.076175 C86.8635125,41.117317 86.8796091,41.1674355 86.903754,41.2085775 L89.1016703,44.3780077 L89.1016703,46.4769979 Z M93.7162702,46.7567635 C94.9396111,46.7567635 95.8337036,45.7364418 95.8337036,44.5590325 L95.8337036,44.5425757 C95.8337036,43.3651664 94.9476594,42.3605535 93.7323668,42.3605535 C92.5082942,42.3605535 91.6142018,43.3816232 91.6142018,44.5590325 L91.6142018,44.5754893 C91.6142018,45.7528986 92.500246,46.7567635 93.7162702,46.7567635 L93.7162702,46.7567635 Z M93.7323668,46.3782571 C92.7819363,46.3782571 92.0407614,45.5711258 92.0407614,44.5590325 L92.0407614,44.5425757 C92.0407614,43.5544196 92.7416948,42.739808 93.7162702,42.739808 C94.6659691,42.739808 95.4071439,43.5461912 95.4071439,44.5590325 L95.4071439,44.5754893 C95.4071439,45.5628974 94.7062106,46.3782571 93.7323668,46.3782571 L93.7323668,46.3782571 Z M100.326847,42.6320908 C100.326847,42.5086648 100.238316,42.4263808 100.12564,42.4263808 C100.012964,42.4263808 99.9324809,42.5086648 99.9324809,42.6320908 L99.9324809,44.8881686 C99.9324809,45.760379 99.3120305,46.3864855 98.507201,46.3864855 C97.6774949,46.3864855 97.2026455,45.8187258 97.2026455,44.9539958 L97.2026455,42.6320908 C97.2026455,42.5086648 97.1141142,42.4263808 97.0014381,42.4263808 C96.8887619,42.4263808 96.808279,42.5086648 96.808279,42.6320908 L96.808279,45.0280514 C96.808279,46.0326643 97.4119011,46.7567635 98.4508629,46.7567635 C99.1993544,46.7567635 99.6588389,46.3700287 99.9324809,45.8763246 L99.9324809,46.4852263 C99.9324809,46.6086523 100.021012,46.6909363 100.133688,46.6909363 C100.246364,46.6909363 100.326847,46.6004239 100.326847,46.4852263 L100.326847,42.6320908 Z M101.663596,46.4852263 C101.663596,46.6086523 101.752127,46.6909363 101.864803,46.6909363 C101.97748,46.6909363 102.057963,46.6004239 102.057963,46.4852263 L102.057963,44.937539 C102.057963,43.5873333 102.839379,42.9208328 103.708595,42.8385488 C103.837368,42.8303204 103.91785,42.7315796 103.91785,42.615634 C103.91785,42.492208 103.829319,42.3934671 103.708595,42.3934671 C103.129118,42.3934671 102.412088,42.8385488 102.057963,43.6531605 L102.057963,42.6320908 C102.057963,42.5086648 101.969431,42.4263808 101.856755,42.4263808 C101.744079,42.4263808 101.663596,42.5168932 101.663596,42.6320908 L101.663596,46.4852263 Z M108.620982,46.5345967 C108.660491,46.6497943 108.724878,46.7238499 108.838286,46.7238499 L108.854382,46.7238499 C108.967058,46.7238499 109.039493,46.6415659 109.071686,46.5345967 L110.66598,41.6940531 L112.260275,46.5345967 C112.292468,46.6415659 112.364902,46.7238499 112.477578,46.7238499 L112.493675,46.7238499 C112.606351,46.7238499 112.670738,46.6415659 112.710979,46.5345967 L114.595744,41.1921207 C114.61184,41.1509787 114.627937,41.1090886 114.627937,41.076175 C114.627937,40.9692058 114.522577,40.8622366 114.417949,40.8622366 C114.32137,40.8622366 114.256983,40.9280638 114.216742,41.035033 L112.493675,46.0244359 L110.891333,41.0268046 C110.859139,40.9362922 110.794753,40.8622366 110.690125,40.8622366 L110.674029,40.8622366 C110.561353,40.8622366 110.505014,40.9362922 110.472821,41.0268046 L108.870479,46.0244359 L107.15546,41.0597182 C107.122535,40.9609774 107.042052,40.8622366 106.929376,40.8622366 C106.8167,40.8622366 106.712072,40.9692058 106.712072,41.0844034 C106.712072,41.117317 106.720121,41.1509787 106.736217,41.1921207 L108.620982,46.5345967 Z M116.375148,46.7567635 C117.155833,46.7567635 117.663607,46.3618003 117.945298,45.9586087 L117.945298,46.4852263 C117.945298,46.6086523 118.025781,46.6909363 118.138457,46.6909363 C118.251133,46.6909363 118.331616,46.6086523 118.331616,46.4852263 L118.331616,44.0398953 C118.331616,43.521506 118.186747,43.1347712 117.913105,42.8550056 C117.615318,42.5498068 117.17193,42.3934671 116.616597,42.3934671 C116.093458,42.3934671 115.682263,42.5168932 115.263752,42.7068944 C115.223511,42.7233512 115.151076,42.7884304 115.151076,42.8879192 C115.151076,42.98666 115.239607,43.0771724 115.336187,43.0771724 C115.360332,43.0771724 115.392525,43.068944 115.424718,43.0524872 C115.762746,42.8879192 116.141748,42.7719736 116.592452,42.7719736 C117.437523,42.7719736 117.945298,43.2088268 117.945298,44.0563521 L117.945298,44.2381249 C117.550931,44.1304077 117.155833,44.0563521 116.584404,44.0563521 C115.521297,44.0563521 114.788903,44.5508041 114.788903,45.4230146 L114.788903,45.4394714 C114.788903,46.3124299 115.609829,46.7567635 116.375148,46.7567635 L116.375148,46.7567635 Z M116.399293,46.3782571 C115.770795,46.3782571 115.207414,46.0244359 115.207414,45.4147862 L115.207414,45.3983294 C115.207414,44.814113 115.690312,44.4191497 116.560259,44.4191497 C117.147785,44.4191497 117.607269,44.5178905 117.953346,44.6084029 L117.953346,45.0856502 C117.953346,45.8516394 117.236316,46.3782571 116.399293,46.3782571 L116.399293,46.3782571 Z M119.92591,48 C120.514167,48 120.932679,47.6873208 121.294852,46.8061339 L122.960849,42.739808 C122.976946,42.698666 122.985726,42.6739808 122.985726,42.6320908 C122.985726,42.5168932 122.896463,42.4263808 122.784518,42.4263808 C122.67989,42.4263808 122.623552,42.492208 122.591359,42.574492 L121.158031,46.2136891 L119.515447,42.5909488 C119.475937,42.5004364 119.427647,42.4263808 119.306191,42.4263808 C119.185467,42.4263808 119.096936,42.5168932 119.096936,42.6320908 C119.096936,42.6739808 119.113032,42.7151228 119.129129,42.7562648 L120.964872,46.6333375 L120.941459,46.6909363 C120.675133,47.3170428 120.401491,47.6214936 119.949323,47.6214936 C119.700558,47.6214936 119.55642,47.58858 119.427647,47.5392096 C119.379358,47.5227528 119.338384,47.506296 119.297411,47.506296 C119.193515,47.506296 119.113032,47.58858 119.113032,47.6955492 C119.113032,47.7860616 119.161322,47.8436604 119.225708,47.8683456 C119.443744,47.9506296 119.652268,48 119.92591,48 L119.92591,48 Z M123.227175,46.1972323 L123.227175,46.4193991 C123.227175,46.5757387 123.339851,46.6909363 123.4935,46.6909363 C123.645686,46.6909363 123.759825,46.5757387 123.759825,46.4193991 L123.759825,46.1972323 C123.759825,46.0408927 123.645686,45.9256951 123.4935,45.9256951 C123.339851,45.9256951 123.227175,46.0408927 123.227175,46.1972323 L123.227175,46.1972323 Z" id="Fill-10" fill="#EC1D24"></path>
        <path d="M139.155499,19.0769231 C138.813362,19.0769231 138.501637,19.161122 138.219564,19.32952 C137.937491,19.4979179 137.714721,19.7241569 137.551255,20.0082369 C137.38703,20.2923168 137.305677,20.5990939 137.305677,20.9285682 C137.305677,21.2580424 137.386269,21.5633551 137.548214,21.8459708 C137.710159,22.1285865 137.932168,22.3526289 138.214242,22.5195625 C138.496315,22.685764 138.806519,22.7692308 139.144855,22.7692308 C139.486232,22.7692308 139.799478,22.6850318 140.083072,22.5166339 C140.366666,22.3482359 140.590956,22.121997 140.754421,21.837917 C140.917887,21.553837 141,21.2470599 141,20.9175857 C141,20.5844506 140.917887,20.2769414 140.754421,19.9943257 C140.590956,19.7124422 140.368186,19.4883998 140.086113,19.3236627 C139.80404,19.1596577 139.493835,19.0769231 139.155499,19.0769231 L139.155499,19.0769231 Z M139.144855,22.41047 C138.868104,22.41047 138.614922,22.343843 138.386071,22.2098568 C138.156458,22.0758706 137.977026,21.895758 137.845494,21.6695191 C137.714721,21.4432801 137.649335,21.1965405 137.649335,20.9285682 C137.649335,20.6605958 137.715481,20.4123919 137.848535,20.1846886 C137.981588,19.9562531 138.163301,19.7746762 138.394434,19.6392257 C138.625567,19.5030431 138.878748,19.4349517 139.155499,19.4349517 C139.432251,19.4349517 139.684672,19.5023109 139.914284,19.6362971 C140.143136,19.7702833 140.324089,19.9503958 140.457142,20.1766348 C140.590195,20.4028737 140.656342,20.6496133 140.656342,20.9175857 C140.656342,21.185558 140.590195,21.4344941 140.457142,21.6643939 C140.324089,21.8942937 140.142376,22.0758706 139.911243,22.2098568 C139.68011,22.343843 139.424648,22.41047 139.144855,22.41047 L139.144855,22.41047 Z M139.941655,20.5866471 C139.941655,20.3874983 139.877029,20.2344758 139.747777,20.1275797 C139.618525,20.0206837 139.435292,19.9672356 139.198837,19.9672356 L138.451457,19.9672356 L138.451457,21.7698257 L138.795115,21.7698257 L138.795115,21.2382739 L139.198837,21.2382739 L139.264983,21.2382739 L139.586593,21.7698257 L139.97967,21.7698257 L139.575948,21.1731112 C139.692275,21.1218597 139.781991,21.0471789 139.845857,20.9476044 C139.909722,20.84803 139.941655,20.7272228 139.941655,20.5866471 L139.941655,20.5866471 Z M138.795115,20.2498513 L139.198837,20.2498513 C139.33037,20.2498513 139.432251,20.2784057 139.50448,20.3362467 C139.577469,20.3948199 139.613964,20.4797511 139.613964,20.5917723 C139.613964,20.7037935 139.577469,20.7916533 139.50448,20.8553517 C139.432251,20.9183179 139.33037,20.9498009 139.198837,20.9498009 L138.795115,20.9498009 L138.795115,20.2498513 Z" id="Fill-12" fill="#4E555A"></path>
    </g>
</svg>