<?xml version="1.0" encoding="UTF-8"?>
<svg width="24px" height="30px" viewBox="0 0 24 30" version="1.1" xmlns="http://www.w3.org/2000/svg" xmlns:xlink="http://www.w3.org/1999/xlink">
    <title>mini-symbol-red</title>
    <g id="mini-symbol-red" stroke="none" stroke-width="1" fill="none" fill-rule="evenodd">
        <path d="M11.8637732,0.999878324 C5.85665009,0.999878324 0.999969581,5.85655884 0.999969581,11.9062683 C0.999969581,13.4825754 1.42613828,15.1440554 1.89458923,16.2941937 C5.17496269,23.3236958 11.6082544,28.7768908 11.8637732,28.7768908 C12.1192919,28.7768908 18.5525836,23.3236958 21.8329571,16.2090208 C22.301408,15.0588825 22.7275767,13.3974025 22.7275767,11.8210954 C22.7275767,5.85655884 17.8708962,0.999878324 11.8637732,0.999878324" id="Fill-1" fill="#ED1C24"></path>
        <path d="M16.6010595,7.57796401 C15.5190595,6.49626816 13.7587181,6.49626816 12.6767181,7.57796401 L7.1264868,13.130933 C6.60236926,13.6550505 6.31369397,14.3519474 6.31369397,15.0929516 C6.31369397,15.83426 6.60236926,16.5314611 7.1264868,17.0552744 C7.66733472,17.5964265 8.37822426,17.8668505 9.08880961,17.8668505 C9.79939496,17.8668505 10.5099803,17.5964265 11.0508282,17.0552744 L16.6010595,11.5026096 C17.125177,10.9784921 17.4138523,10.2815953 17.4138523,9.54028682 C17.4138523,8.79897839 17.125177,8.10208154 16.6010595,7.57796401 M16.1879709,11.0892169 L13.4003836,13.8783252 L10.3022193,10.7801609 L13.0898067,7.99135677 C13.5168879,7.56427551 14.0781165,7.35073488 14.6387367,7.35073488 C15.1996611,7.35073488 15.7608897,7.56427551 16.1879709,7.99135677 C16.6016679,8.40505372 16.8295054,8.95502731 16.8295054,9.54028682 C16.8295054,10.1252421 16.6016679,10.6755199 16.1879709,11.0892169" id="Fill-4" fill="#FFFFFF"></path>
    </g>
</svg>