<?xml version="1.0" encoding="UTF-8"?>
<svg width="162px" height="52px" viewBox="0 0 162 52" version="1.1" xmlns="http://www.w3.org/2000/svg" xmlns:xlink="http://www.w3.org/1999/xlink">
    <title>Artboard</title>
    <g id="Artboard" stroke="none" stroke-width="1" fill="none" fill-rule="evenodd">
        <g id="mastercard-footer" transform="translate(1.000000, 1.000000)" fill-rule="nonzero">
            <rect id="Rectangle" stroke="#C8C8C8" fill="#FFFFFF" x="0" y="0" width="70" height="49" rx="2"></rect>
            <g id="Mastercard-logo" transform="translate(11.000000, 9.000000)">
                <polygon id="Path" fill="#FF5F00" points="29.8553455 27.6879332 17.1431759 27.6879332 17.1431759 3.31600883 29.8553455 3.31600883"></polygon>
                <g id="Group" transform="translate(11.753233, 15.500000) scale(-1, 1) rotate(-180.000000) translate(-11.753233, -15.500000) " fill="#EB001B">
                    <path d="M17.9575469,15.5 C17.9575469,20.443957 20.1274173,24.8478924 23.5064659,27.6859623 C21.0354557,29.7613007 17.9169022,31 14.5276925,31 C6.50406831,31 -5.70897227e-16,24.0605251 -5.70897227e-16,15.5 C-5.70897227e-16,6.93947485 6.50406831,-8.18862136e-16 14.5276925,-8.18862136e-16 C17.9169022,-8.18862136e-16 21.0354557,1.23869922 23.5064659,3.31403776 C20.1274173,6.15210756 17.9575469,10.556043 17.9575469,15.5" id="Path"></path>
                </g>
                <g id="Group" transform="translate(35.246305, 15.500000) scale(-1, 1) rotate(-180.000000) translate(-35.246305, -15.500000) translate(23.492610, 0.000000)" fill="#F79E1B">
                    <path d="M23.5073896,15.5 C23.5073896,6.93947485 17.0033214,-8.18862136e-16 8.97969721,-8.18862136e-16 C5.59048735,-8.18862136e-16 2.47193393,1.23869922 -3.26226987e-16,3.31403776 C3.37997244,6.15210756 5.5498427,10.556043 5.5498427,15.5 C5.5498427,20.443957 3.37997244,24.8478924 -3.26226987e-16,27.6859623 C2.47193393,29.7613007 5.59048735,31 8.97969721,31 C17.0033214,31 23.5073896,24.0605251 23.5073896,15.5" id="Path"></path>
                </g>
            </g>
        </g>
        <g id="visa-footer" transform="translate(90.090909, 1.000000)" fill-rule="nonzero">
            <rect id="Rectangle" stroke="#C8C8C8" fill="#FFFFFF" x="-0.0909090909" y="0" width="70" height="49" rx="2"></rect>
            <g id="Visa_Inc._logo" transform="translate(6.909091, 16.000000)">
                <polygon id="polygon9" fill="#00579F" points="23.3999362 17.7403231 19.0255598 17.7403231 21.7616082 0.315849987 26.1357455 0.315849987"></polygon>
                <path d="M39.2574398,0.741828637 C38.3946206,0.389269095 37.0261179,5.06966384e-16 35.3339684,5.06966384e-16 C31.0141309,5.06966384e-16 27.9721369,2.37257049 27.9534787,5.76463182 C27.9175977,8.26728718 30.1314575,9.65732277 31.7872477,10.4917876 C33.4796365,11.344484 34.054929,11.9010403 34.054929,12.6611005 C34.0377061,13.828415 32.6873832,14.3664933 31.4279589,14.3664933 C29.6815093,14.3664933 28.745732,14.0890775 27.323647,13.4396387 L26.7476367,13.1612374 L26.1355063,17.0726527 C27.1614646,17.5540652 29.0516776,17.9812757 31.0141309,18 C35.6040329,18 38.5922054,15.6641392 38.6276081,12.0493567 C38.6450701,10.065809 37.4760661,8.54593488 34.9557822,7.30396936 C33.4258149,6.50670683 32.4888414,5.96912128 32.4888414,5.1533808 C32.5067819,4.41179853 33.281334,3.65223106 35.0084077,3.65223106 C36.4304927,3.61502876 37.4753484,3.96709555 38.266884,4.31940872 L38.6625323,4.50443473 L39.2574398,0.741828637 L39.2574398,0.741828637 L39.2574398,0.741828637 Z" id="path11" fill="#00579F"></path>
                <path d="M45.0713634,11.5674514 C45.431609,10.5664386 46.817813,6.69222558 46.817813,6.69222558 C46.7996332,6.72942788 47.177341,5.67273475 47.3933448,5.02403505 L47.6990511,6.52543117 C47.6990511,6.52543117 48.5274247,10.6962771 48.7073082,11.5674514 C48.0236549,11.5674514 45.9353787,11.5674514 45.0713634,11.5674514 L45.0713634,11.5674514 Z M50.4709807,0.315849987 L47.0873992,0.315849987 C46.0439786,0.315849987 45.251247,0.630714483 44.8010596,1.76156583 L38.3034827,17.7400767 L42.8933846,17.7400767 C42.8933846,17.7400767 43.6490393,15.5894881 43.8114607,15.1263072 C44.3149913,15.1263072 48.7800272,15.1263072 49.4277994,15.1263072 C49.553383,15.738051 49.9497489,17.7400767 49.9497489,17.7400767 L54,17.7400767 L50.4709807,0.315849987 L50.4709807,0.315849987 L50.4709807,0.315849987 Z" id="path13" fill="#00579F"></path>
                <path d="M15.3719135,0.315849987 L11.0879573,12.1976732 L10.6198294,9.78790038 C9.82781535,7.00733645 7.34389093,3.98631262 4.57196141,2.48417739 L8.49591134,17.7218451 L13.1216943,17.7218451 L19.9974573,0.315849987 L15.3719135,0.315849987 L15.3719135,0.315849987 L15.3719135,0.315849987 Z" id="path15" fill="#00579F"></path>
                <path d="M7.10994658,0.315849987 L0.0720012758,0.315849987 L-2.14279701e-16,0.667916782 C5.49003747,2.11387901 9.1259823,5.59931565 10.6198294,9.78863951 L9.08986206,1.78053655 C8.8379772,0.66767041 8.06390368,0.352559542 7.10994658,0.315849987 L7.10994658,0.315849987 Z" id="path17" fill="#FAA61A"></path>
            </g>
        </g>
    </g>
</svg>