<?xml version="1.0" encoding="UTF-8"?>
<svg width="204px" height="204px" viewBox="0 0 204 204" version="1.1" xmlns="http://www.w3.org/2000/svg" xmlns:xlink="http://www.w3.org/1999/xlink">
    <title>play</title>
    <g id="play" stroke="none" stroke-width="1" fill="none" fill-rule="evenodd">
        <path d="M101.5,3 C155.900048,3 200,47.0999521 200,101.5 C200,155.900048 155.900048,200 101.5,200 C47.0999521,200 3,155.900048 3,101.5 C3,47.0999521 47.0999521,3 101.5,3 Z M76.8324377,56.2324607 C76.2774792,56.5887263 76,57.2303981 76,58.1568199 L76,136.842314 C76,137.769391 76.2774792,138.411063 76.8324377,138.767329 C77.3873962,139.123594 78.0519837,139.071106 78.825581,138.607239 L145.838675,99.1575468 C146.612892,98.6936798 147,98.1399263 147,97.4995667 C147,96.8578949 146.612892,96.3054536 145.838675,95.8422427 L78.825581,56.3925506 C78.0519837,55.9293397 77.3873962,55.8761951 76.8324377,56.2324607 Z" id="Combined-Shape" stroke="#FFFFFF" stroke-width="5"></path>
    </g>
</svg>