<svg xmlns="http://www.w3.org/2000/svg" xmlns:xlink="http://www.w3.org/1999/xlink" width="32" height="32" version="1.1" viewBox="0 0 32 32"><title>play-inline</title><g id="play-inline" fill="none" fill-rule="evenodd" stroke="none" stroke-width="1"><path id="Combined-Shape" stroke="#EC1D24" stroke-width="1.364" d="M16,1 C24.2842712,1 31,7.71572875 31,16 C31,24.2842712 24.2842712,31 16,31 C7.71572875,31 1,24.2842712 1,16 C1,7.71572875 7.71572875,1 16,1 Z M12.0369943,9.21746385 C11.9517254,9.27209385 11.9090909,9.37048821 11.9090909,9.51254632 L11.9090909,21.5782299 C11.9090909,21.7203886 11.9517254,21.818783 12.0369943,21.873413 C12.1222632,21.928043 12.2243765,21.9199943 12.3432391,21.8488647 L22.6397452,15.7996238 C22.7587029,15.7284942 22.8181818,15.6435812 22.8181818,15.5453881 C22.8181818,15.4469937 22.7587029,15.362282 22.6397452,15.291253 L12.3432391,9.24201214 C12.2243765,9.17098308 12.1222632,9.16283385 12.0369943,9.21746385 Z"/></g></svg>