<?xml version="1.0" encoding="UTF-8"?>
<svg width="16px" height="16px" viewBox="0 0 16 16" version="1.1" xmlns="http://www.w3.org/2000/svg" xmlns:xlink="http://www.w3.org/1999/xlink">
    <title>subtract</title>
    <g id="subtract" stroke="none" stroke-width="1" fill="none" fill-rule="evenodd">
        <path d="M8,0 C7.42393043,0 6.95652174,0.467408696 6.95652174,1.04347826 L6.95652174,6.95652174 L1.04347826,6.95652174 C0.467408696,6.95652174 0,7.42393043 0,8 C0,8.57606957 0.467408696,9.04347826 1.04347826,9.04347826 L6.95652174,9.04347826 L6.95652174,14.9565217 C6.95652174,15.5325913 7.42393043,16 8,16 C8.57606957,16 9.04347826,15.5325913 9.04347826,14.9565217 L9.04347826,9.04347826 L14.9565217,9.04347826 C15.5325913,9.04347826 16,8.57606957 16,8 C16,7.42393043 15.5325913,6.95652174 14.9565217,6.95652174 L9.04347826,6.95652174 L9.04347826,1.04347826 C9.04347826,0.467408696 8.57606957,0 8,0 Z" id="Fill-1" fill="#1D1D1D"></path>
    </g>
</svg>