<svg xmlns="http://www.w3.org/2000/svg" xmlns:xlink="http://www.w3.org/1999/xlink" width="81" height="27" version="1.1" viewBox="0 0 81 27"><title>tile-slider-previous</title><g id="tile-slider-previous" fill="none" fill-rule="evenodd" stroke="none" stroke-width="1"><path id="Arrow" fill="#EC1D24" d="M67.4002699,0.284481485 L80.0988361,12.6826781 C80.4940061,13.0685008 80.5015836,13.7016204 80.1157609,14.0967904 C80.110187,14.1024993 80.104545,14.1081413 80.0988361,14.1137152 L78.7042805,15.4752842 L78.696,15.482 L67.4002699,26.5119118 C67.0117718,26.8912204 66.3915805,26.8912204 66.0030823,26.5119118 L64.6085268,25.1503428 C64.2133568,24.7645201 64.2057793,24.1314004 64.591602,23.7362305 L64.6085268,23.7193057 L64.6085268,23.7193057 L73.131,15.398 L1,15.3981966 C0.44771525,15.3981966 6.76353751e-17,14.9504814 0,14.3981966 L0,12.3981966 C-6.76353751e-17,11.8459119 0.44771525,11.3981966 1,11.3981966 L73.131,11.398 L64.6085268,3.07708754 C64.2133568,2.69126486 64.2057793,2.05814522 64.591602,1.66297526 C64.5971759,1.65726636 64.6028179,1.65162438 64.6085268,1.64605051 L66.0030823,0.284481485 C66.3915805,-0.0948271616 67.0117718,-0.0948271616 67.4002699,0.284481485 Z" transform="translate(40.200121, 13.398197) scale(-1, 1) translate(-40.200121, -13.398197)"/></g></svg>