<svg xmlns="http://www.w3.org/2000/svg" xmlns:xlink="http://www.w3.org/1999/xlink" width="44" height="44" version="1.1" viewBox="0 0 44 44"><title>twitter</title><g id="twitter" fill="none" fill-rule="evenodd" stroke="none" stroke-width="1"><g id="Group" fill="#000" fill-rule="nonzero"><path id="Shape" d="M22,0 C34.1502645,0 44,9.8497355 44,22 C44,34.1502645 34.1502645,44 22,44 C9.8497355,44 0,34.1502645 0,22 C0,9.8497355 9.8497355,0 22,0 Z M22,2 C10.954305,2 2,10.954305 2,22 C2,33.045695 10.954305,42 22,42 C33.045695,42 42,33.045695 42,22 C42,10.954305 33.045695,2 22,2 Z"/></g><g id="Group" fill="#000" fill-rule="nonzero" transform="translate(10.000000, 12.000000)"><path id="Path" d="M27,2.60411663 C25.9889975,3.05324169 24.9165999,3.34799736 23.8185009,3.47857296 C24.9622285,2.79131974 25.8405294,1.7028268 26.2540975,0.405979652 C25.1667193,1.05301002 23.9769771,1.50880556 22.7363284,1.7536526 C21.6888866,0.633004478 20.2248545,-0.00197586057 18.6930585,0 C15.6340398,0 13.1537331,2.48652277 13.1537331,5.55374938 C13.1537331,5.98892557 13.2025364,6.41289483 13.2971517,6.8193434 C8.69343168,6.5877861 4.61174893,4.37670591 1.87955453,1.0163628 C1.38685924,1.86389939 1.12800226,2.82763375 1.1295589,3.80862498 C1.1295589,5.73542794 2.1075129,7.43540893 3.59380776,8.43140522 C2.71420108,8.40377899 1.85394541,8.16559436 1.08484884,7.73673333 C1.08421912,7.75977856 1.08421912,7.78313949 1.08421912,7.80650042 C1.08421912,10.4974267 2.99384275,12.7419698 5.52783301,13.2525955 C4.71211614,13.475086 3.85646191,13.5076421 3.02627329,13.3477755 C3.73124399,15.5541204 5.77688697,17.1598684 8.20099122,17.2045383 C6.30506399,18.694271 3.91669631,19.5823019 1.32130842,19.5823019 C0.874207749,19.5823019 0.433404274,19.5557841 0,19.5044847 C2.45133961,21.0805581 5.36316142,22 8.4912918,22 C18.6801493,22 24.2520626,13.5370306 24.2520626,6.19759548 C24.2520626,5.95672538 24.24671,5.71727587 24.2360048,5.47893128 C25.3204167,4.69302225 26.2563482,3.71951007 27,2.60411663 L27,2.60411663 Z"/></g></g></svg>