<svg xmlns="http://www.w3.org/2000/svg" xmlns:xlink="http://www.w3.org/1999/xlink" width="44" height="44" version="1.1" viewBox="0 0 44 44"><title>youtube</title><g id="youtube" fill="none" fill-rule="evenodd" stroke="none" stroke-width="1"><g id="Group"><rect id="Rectangle" width="44" height="44" x="0" y="0"/><path id="Shape" fill="#000" fill-rule="nonzero" d="M22,0 C34.1502645,0 44,9.8497355 44,22 C44,34.1502645 34.1502645,44 22,44 C9.8497355,44 0,34.1502645 0,22 C0,9.8497355 9.8497355,0 22,0 Z M22,2 C10.954305,2 2,10.954305 2,22 C2,33.045695 10.954305,42 22,42 C33.045695,42 42,33.045695 42,22 C42,10.954305 33.045695,2 22,2 Z"/></g><g id="YouTube-Icon-Full-Color-Logo.wine" fill="#000" fill-rule="nonzero" transform="translate(10.000000, 13.000000)"><path id="Combined-Shape" d="M12.339736,0.000743058962 C13.824555,0.00795855257 19.7443052,0.0644799192 21.3769183,0.507230624 C22.4096922,0.786502934 23.2228815,1.60941026 23.498922,2.65431645 C23.9547807,4.37617476 23.9962317,7.79853439 24,8.40655221 L24,8.59346787 C23.9962317,9.20145634 23.9547807,12.623663 23.4988197,14.3456054 C23.2227792,15.3905116 22.4095899,16.2133161 21.376816,16.4927941 C19.7442029,16.9353654 13.8244527,16.9918639 12.3396338,16.9990764 L12.0883481,17 C12.0691016,17.000044 12.052873,17.0000733 12.0397889,17.0000928 L11.9117137,17 C11.8924675,16.999956 11.8702033,16.9998974 11.8450478,16.9998192 L11.6604312,16.9990764 C11.0085676,16.9959099 9.50191384,16.983244 7.87850215,16.9325801 L7.33405294,16.9142457 C5.42043215,16.844876 3.45950681,16.719477 2.62324467,16.4927941 C1.59057299,16.2132133 0.777179125,15.3905116 0.501343182,14.3455026 C0.0606707717,12.6809583 0.00725593406,9.42761144 0.000781408283,8.66337742 L0.000781408283,8.33643369 C0.00725593406,7.57216382 0.0606707717,4.31868008 0.501343182,2.65431645 C0.777179125,1.60941026 1.59057299,0.786502934 2.62334694,0.507230624 C4.25604922,0.0644799192 10.175733,0.00795855257 11.6605335,0.000743058962 Z M9.54553022,4.91214465 L9.54553022,12.0876744 L15.8183689,8.50011518 L9.54553022,4.91214465 Z"/></g></g></svg>